<?xml version="1.0" encoding="utf-8"?>
<!-- Generator: Adobe Illustrator 15.1.0, SVG Export Plug-In . SVG Version: 6.00 Build 0)  -->
<!DOCTYPE svg PUBLIC "-//W3C//DTD SVG 1.1//EN" "http://www.w3.org/Graphics/SVG/1.1/DTD/svg11.dtd">
<svg version="1.1" id="Layer_1" xmlns="http://www.w3.org/2000/svg" xmlns:xlink="http://www.w3.org/1999/xlink" x="0px" y="0px"
	 width="600px" height="600px" viewBox="0 0 600 600" enable-background="new 0 0 600 600" xml:space="preserve">
<g>
	<g>
		<path fill-rule="evenodd" clip-rule="evenodd" fill="#D29E30" d="M296.306,1.588c23.297-1.109,48.557,2.521,68.507,6.669
			c20.857,4.337,40.039,11.181,56.686,18.491c35.165,15.443,64.419,36.228,89.12,60.929c25.631,25.629,45.909,53.127,62.142,87.907
			c16.012,34.311,26.502,74.247,27.584,122.465c1.089,48.438-9.991,89.883-25.159,124.586
			c-15.217,34.816-36.114,64.912-60.626,89.423c-49.079,49.079-115.519,87.45-210.371,89.727
			c-48.258,1.157-90.093-10.084-124.586-25.16c-68.696-30.026-120.608-81.658-151.868-148.23
			c-8.067-17.181-14.415-35.692-19.4-55.775c-9.891-39.845-10.643-92.575-1.516-134.589c13.549-62.368,42.19-107.828,78.813-146.412
			c24.468-25.777,53.704-46.105,87.908-62.141c33.654-15.778,74.075-27.888,122.161-27.888C295.9,1.588,296.104,1.598,296.306,1.588
			z M229.314,22.201c-19.493,5.116-37.139,11.278-53.048,19.097c-64.329,31.62-112.324,80.363-140.955,147.018
			c-13.724,31.95-25.221,74.444-23.038,120.646c2.231,47.218,11.753,83.147,27.584,116.401
			c15.286,32.108,35.572,60.668,60.323,83.664c24.862,23.1,52.103,42.631,86.392,57.595c33.031,14.413,74.373,24.889,120.646,23.037
			c45.215-1.807,82.879-11.868,116.401-27.584c48.192-22.595,87.905-57.453,116.099-99.729
			c9.442-14.159,18.144-29.589,25.463-46.683c14.215-33.2,25.096-73.852,23.037-120.645c-1.021-23.228-3.606-43.772-8.487-63.354
			c-14.237-57.113-42.45-102.212-79.116-137.015c-24.677-23.422-51.958-42.757-86.393-57.594
			C382.26,23.281,339.549,11.51,293.274,13.713C270.535,14.796,248.922,17.055,229.314,22.201z"/>
		<path fill-rule="evenodd" clip-rule="evenodd" fill="#D29E30" d="M287.515,23.11c45.557-2.169,85.968,7.141,118.827,20.613
			c65.657,26.919,113.429,73.21,144.289,134.589c15.548,30.921,26.168,68.782,28.191,111.248
			c2.22,46.621-7.308,84.964-20.613,118.221c-13.367,33.409-32.574,60.953-54.563,84.876c-22.42,24.391-48.926,43.777-80.026,59.413
			c-30.936,15.554-67.622,26.146-110.945,28.191c-45.427,2.146-85.516-6.843-118.523-20.31
			c-33.521-13.676-60.371-32.886-84.573-54.866c-36.098-32.784-63.9-76.614-78.813-130.346c-5.096-18.36-8.039-38.461-9.094-60.626
			c-2.156-45.285,7.031-85.925,20.31-118.523c20.119-49.392,51.562-87.843,91.545-117.614
			C172.947,48.623,221.846,26.238,287.515,23.11z M319.344,32.204c-6.544,19.021-12.207,38.92-19.098,57.595
			c-6.816-19.152-14.113-37.823-20.916-56.988c-5.568,0.595-12.146,0.181-18.188,0.303c0.46,24.396,0.859,48.854,1.213,73.357
			c4.184,0.042,7.76-0.526,12.125-0.303c0.092-18.886-0.801-38.404-0.606-56.382c7.081,18.686,14.22,37.312,21.22,56.079
			c3.724,0.087,6.739-0.535,10.609-0.303c6.492-18.869,12.678-38.045,19.4-56.686c0.329,18.768,0.635,37.56,0.909,56.382
			c4.042,0,8.083,0,12.125,0c0.009-12.021-0.264-24.675-0.606-36.982c-0.296-10.658,0.53-22.334-0.303-32.738
			c-0.082-1.025,0.239-3.172-1.213-3.638C331.043,32.586,324.816,32.018,319.344,32.204z M427.561,150.121
			c2.942,3.323,5.446,7.084,9.094,9.7c16.84-8.926,34.079-17.453,51.229-26.069c-10.384,16.393-21.434,32.12-31.829,48.5
			c3.224,2.94,5.58,6.747,9.094,9.397c22.375-11.172,44.604-22.487,67.295-33.344c-1.756-3.309-5.64-7.081-8.791-10.003
			c-16.66,9.206-33.447,18.286-50.622,26.979c10.802-15.975,21.53-32.023,32.132-48.198c-3.137-3.128-5.691-6.838-9.094-9.7
			c-16.76,8.805-34.547,18.198-51.229,26.069c10.95-15.523,21.555-31.392,32.738-46.682c-2.607-3.657-5.848-6.682-8.791-10.003
			C455.15,107.992,441.055,128.756,427.561,150.121z M132.919,99.499c-13.15-1.989-19.355,8.746-26.372,15.763
			c-2.654,2.654-5.415,5.415-8.791,8.791c-1.104,1.104-8.835,8.061-8.791,9.094c0.044,1.031,5.115,4.648,6.669,6.063
			c16.314,14.856,29.592,31.185,45.772,44.863c5.177-5.278,11.744-12.047,18.794-19.097c6.668-6.668,14.088-12.98,14.854-23.341
			c0.83-11.235-9.271-21.239-19.704-21.219c-3.95,0.008-6.772,1.904-9.397,2.728C150.264,111.146,141.946,100.864,132.919,99.499z
			 M219.008,136.48c-20.906,10.338-38.125,23.515-52.745,39.104c-28.556,30.45-52.535,73.974-49.713,133.68
			c1.357,28.718,8.05,52.592,18.491,73.357c10.339,20.565,22.674,38.165,38.801,53.048c30.865,28.485,74.453,52.469,133.68,49.713
			c55.959-2.604,96.835-25.464,126.405-57.291c28.183-30.334,52.839-73.682,50.016-133.377c-1.337-28.271-7.956-52.97-18.188-73.66
			c-10.17-20.566-22.465-37.81-38.801-53.048c-30.193-28.165-74.72-52.838-133.983-50.016
			C264.255,119.357,239.372,126.411,219.008,136.48z"/>
		<path fill-rule="evenodd" clip-rule="evenodd" fill="#D29E30" d="M119.885,145.271c-3.963-2.97-6.87-6.566-10.913-10.61
			c-0.825-0.825-3.618-2.885-3.637-3.334c-0.033-0.786,3.656-3.656,4.85-4.85c4.176-4.176,10.373-13.568,16.369-14.247
			c6.928-0.785,13.885,7.982,10.306,15.156C133.496,134.132,123.915,139.209,119.885,145.271z"/>
		<path fill-rule="evenodd" clip-rule="evenodd" fill="#D29E30" d="M291.759,126.478c56.112-2.672,99.879,19.974,127.921,46.985
			c28.857,27.797,52.322,65.935,54.866,119.736c1.356,28.7-4.143,53.388-12.731,74.267c-8.545,20.776-20.135,38.644-34.254,53.048
			c-29.079,29.669-64.813,52.306-119.433,55.169c-54.76,2.871-98.903-19.133-127.618-46.682
			c-29.872-28.658-52.302-65.479-55.169-119.433c-1.524-28.684,4.051-54.17,12.428-74.57c8.688-21.155,19.943-37.395,34.254-53.048
			c20.27-22.17,46.996-39.897,81.542-49.41C265.229,129.328,278.446,127.111,291.759,126.478z M302.975,133.146
			c0,54.966,0,109.936,0,164.903c55.27,0,110.542,0,165.812,0c-1.733-53.438-22.51-87.829-49.106-116.402
			c-28.546-26.725-62.96-47.582-116.402-49.41C302.924,132.288,302.948,132.716,302.975,133.146z M131.101,306.536
			c2.633,51.131,22.766,87.623,50.016,114.583c27.237,26.947,63.922,46.928,115.795,48.804c0-54.766,0-109.531,0-164.296
			c-55.171,0-110.338,0-165.509,0C131.05,305.677,131.074,306.105,131.101,306.536z"/>
		<path fill-rule="evenodd" clip-rule="evenodd" fill="#D29E30" d="M142.922,167.703c-5.734-5.077-11.459-10.164-16.369-16.066
			c6.492-4.269,12.226-15.286,19.703-19.097c8.21-4.184,19.323,4.328,16.066,13.944
			C159.476,154.891,147.142,160.782,142.922,167.703z"/>
	</g>
</g>
</svg>
