<?xml version="1.0" encoding="utf-8"?>
<!-- Generator: Adobe Illustrator 15.1.0, SVG Export Plug-In . SVG Version: 6.00 Build 0)  -->
<!DOCTYPE svg PUBLIC "-//W3C//DTD SVG 1.1//EN" "http://www.w3.org/Graphics/SVG/1.1/DTD/svg11.dtd">
<svg version="1.1" id="Layer_1" xmlns="http://www.w3.org/2000/svg" xmlns:xlink="http://www.w3.org/1999/xlink" x="0px" y="0px"
	 width="493px" height="700px" viewBox="0 0 493 700" enable-background="new 0 0 493 700" xml:space="preserve">
<g>
	<g>
		<path fill-rule="evenodd" clip-rule="evenodd" fill="#3C3C3C" d="M198.663,12.075c0.737-4.925,3.249-8.075,4.756-12.229
			c6.638,3.553,12.475,7.906,12.229,18.343C206.625,19.513,202.986,15.451,198.663,12.075z"/>
		<path fill-rule="evenodd" clip-rule="evenodd" fill="#3C3C3C" d="M108.983,532.489c11.478-6.779,27.287-6.01,42.123-4.076
			c5.412,0.705,10.367,3.379,15.626,3.396c3.905,0.014,7.862-1.49,11.549-1.358c5.259,0.188,10.92,3.337,16.985,5.436
			c15.248,5.274,36.206,9.366,56.39,6.114c-0.545-9.343-8.377-16.453-13.588-25.138c-11.589-19.315-22.723-40.594-29.214-67.939
			c-1.568-6.605-5.929-19.088,3.397-19.022c12.959,0.09,32.838,19.532,37.367,29.893c1.418,3.245,1.951,7.266,2.038,10.871
			c2.651,5.224,13.043,6.641,14.947,14.267c1.508,6.044-2.268,17.422-2.039,25.138c0.291,9.838,2.991,20.968,6.114,29.214
			c5.673,14.973,16.8,25.853,4.077,38.046c-11.525,4.424-17.759-2.812-25.817-6.114c-15.265-6.259-35.977-11.606-54.351-12.229
			c-9.027-0.306-20.524,2.537-25.817-4.076C143.556,564.981,114.011,554.909,108.983,532.489z M128.686,537.924
			c0.301,4.479,8.053,4.465,6.794-1.358C132.6,536.403,130.668,537.19,128.686,537.924z M207.495,546.077
			c-3.809-0.9-6.984-4.586-9.512-2.038c9.924,4.796,22.684,6.756,36.687,7.474C229.285,546.078,216.189,548.133,207.495,546.077z
			 M258.449,549.474c2.771,0.28,4.286-0.695,4.076-3.396C260.171,546.213,258.108,546.643,258.449,549.474z"/>
		<path fill-rule="evenodd" clip-rule="evenodd" fill="#3C3C3C" d="M221.762,18.869c-0.189-3.434-2.72-4.526-3.397-7.473
			c0.972-5.142,4.364-7.865,6.114-12.229c8.671,4.917,14.082,13.094,21.061,19.702c17.323-0.564,28.355,5.162,36.008,14.268
			c12.531,1.283,30.723-3.094,38.046,3.397c-4.315,7.914-19.37,5.088-23.779,12.908c12.117,1.471,18.382,8.794,25.138,15.626
			c8.149,1.464,16.49,5.31,21.74,10.871c3.497,3.703,7.932,10.11,6.115,14.267c-7.295-1.084-9.711-7.047-14.268-10.87
			c-15.484,0.764-24.281-5.159-34.648-9.512c-0.633,4.555,5.736,5.615,8.832,8.153c3.794,3.111,6.229,7.371,9.511,10.191
			c11.964,0.444,22.008,1.048,29.215,6.114c3.533,2.484,8.399,7.127,8.152,11.55c-5.675-0.333-8.435-6.46-14.946-7.473
			c-8.749-1.361-19.429,3.757-27.177-1.359c5.149,7.986,16.522,11.942,26.497,15.626c3.084,1.139,7.435,1.424,8.832,4.756
			c-5.746,7.552-14.098,0.175-21.062-1.359c-2.462-0.542-4.974,0.362-7.474,0c-6.883-0.998-11.78-6.568-17.664-6.794
			c6.733,9.346,16.698,15.46,20.382,27.855c4.337,4.949,10.705,7.866,12.229,15.626c1.818,3.391,5.588,4.829,8.152,7.474
			c-3.152,4.657-10.073,0.634-12.908-1.359c-3.49-2.453-6.197-6.696-10.191-9.512c-7.203-5.077-15.807-9.25-22.419-14.947
			c6.253,9.6,18.389,13.316,26.496,21.062c0.679,6.568,4.658,9.834,8.152,13.588c6.28,0.513,12.728,0.86,14.268,6.114
			c-5.886,3.174-12.804,3.348-19.023,1.359c-4.064-1.3-4.817-5.653-8.832-8.153c-5.332-3.319-15.953-4.466-21.74-4.076
			c4.81,4.476,10.082,8.488,13.588,14.267c15.255,2.862,18.488,17.746,29.894,24.458c-4.372,7.054-13.839-1.054-15.627-6.794
			c-7.842,0.822-9.768-4.272-16.984-4.076c-1.335,3.134,7.013,3.82,4.076,8.832c-6.574-0.672-9.815-4.678-16.306-5.435
			c0.316,7.437,9.578,5.486,15.626,7.474c3.982,1.309,7.05,6.176,11.55,8.152c5.684,2.496,10.649-0.222,15.626,3.397
			c-10.806,16-27.508-7.763-42.122-0.679c15.357,0.495,21.405,10.299,33.29,14.267c-2.629,5.263-14.328,2.369-16.306-1.359
			c-8.854,1.11-18.516,1.413-28.534,1.359c3.874,6.533,10.661,3.567,19.023,6.794c7.445,2.873,10.938,13.016,16.984,14.947
			c9.034,2.884,15.618-3.245,24.458-5.436c-5.548,10.441-18.555,14.612-31.932,10.871c-5.185-1.451-11.085-6.266-17.664-8.153
			c-6.088-1.747-12.468-1.582-17.664-4.076c10.365,8.915,31.848,10.235,33.97,25.138c-9.433,0.56-12.748-10.774-25.816-8.832
			c11.351,3.143,18.655,10.332,23.099,20.381c1.8,2.541,5.582-1.09,6.794,2.038c-1.227,3.728-5.211,2.546-7.473,2.039
			c-8.562-1.921-17.009-15.334-27.176-16.306c-2.625-0.134-5.007-0.024-6.794,0.68c-4.31-2.711-9.112-4.929-13.588-7.474
			c-5.89,29.119,18.685,47.218,29.894,65.901c33.966,31.029,80.447,49.543,97.152,97.833c11.477,1.349,19.539-3.28,25.817-7.474
			c17.813-11.896,29.991-29.965,27.854-59.786c-0.791-11.054-2.757-23.974-5.435-35.328c-3.582-15.187-10.65-28.937-12.229-42.123
			c-3.82-31.898,14.229-51.644,30.573-65.901c4.24-3.699,9.414-8.618,15.626-8.153c-4.061,8.705-13.511,12.783-19.023,21.061
			c-7.301,10.964-12.14,25.064-10.19,43.481c5.671-3.332,9.068-8.769,13.588-13.588c8.961-9.556,18.815-16.373,23.778-30.573
			c7.476,18.055-14.391,33.503-20.382,48.237c-2.333,5.736-4.651,27.306,2.718,27.176c3.71-0.065,4.148-6.403,6.114-9.512
			c3.884-6.141,11.846-12.088,15.626-17.664c0.571-1.693,0.89-3.64,0.68-6.114c14.174,5.244-3.651,22.742-6.794,31.252
			c-10.729,29.048,11.22,64.273,2.718,96.474c-2.832,10.723-11.632,24.145-19.703,31.252c-6.428,5.66-15.389,8.013-23.099,11.55
			c1.428,5.168,7.107,9.403,8.152,16.306c1.103,7.274-2.185,16.397-2.038,25.137c0.11,6.583,3.585,11.378,1.358,16.306
			c-15.575-8.43-5.03-42.98-22.42-49.596c0.211,6.893,5.731,9.787,6.794,18.344c2.996,24.095-12.649,49.204-23.099,62.504
			c0.941,4.225,2.904,10.065-2.039,10.19c-4.775,0.123-5.249-10.162-4.755-14.946c1.596-15.462,22.169-38.665,10.87-55.71
			c-5.598,8.615-4.964,24.941-6.794,35.328c-13.003-9.282,2.295-39.849-8.832-50.954c-6.849,3.879-3.959,11.111-4.756,15.626
			c-4.76,26.953-29.343,52.38-48.916,66.58c-2.592,1.881-6.618,2.407-8.832,4.756c-4.548,4.824-8.103,18.332-6.115,27.176
			c1.325,5.895,8.208,9.586,10.87,16.306c2.157,5.445,0.881,10.11,3.397,16.984c-2.23,0.714-2.403,3.484-3.397,5.436
			c-15.514,8.265-29.593,17.964-38.045,33.29c-3.525,1.91-7.172,3.699-10.191,6.114c-1.832,12.003-8.552,22.675-19.022,23.779
			c1.718,5.909-0.538,10.983-0.68,16.984c-11.427,6.237-19.215,16.114-38.726,14.268c-7.663-5.463-1.104-24.132,4.077-31.252
			c3.262-4.484,9.952-9.357,13.587-13.588c4.175-4.856,8.104-13.364,11.55-15.626c1.441-0.946,5.133-1.44,7.474-2.718
			c6.933-3.785,13.654-12.89,20.382-21.062c5.579-6.777,16.786-17.579,16.984-24.458c0.156-5.438-8.163-12.593-11.55-17.664
			c-3.908-5.853-7.482-12.957-10.19-18.344c-9.243-18.384-18.972-44.656-9.512-69.298c3.812-9.93,12.982-16.347,15.626-27.176
			c2.707-11.089-0.396-18.457,6.114-27.176c-3.444-0.5-4.203,1.685-6.114,2.718c-0.402,14.091-4.338,24.649-8.832,34.649
			c-2.711,11.938-17.657,8.994-23.779,2.038c-2.171-9.979-5.795-18.752-12.229-25.816c-13.764-15.115-35.116-24.793-54.351-36.009
			c-9.042-5.271-17.436-12.46-25.138-19.702c-11.249-10.577-21.131-19.722-28.535-33.29c-1.325-1.665,1.447-3.584,1.359-6.115
			c-16.781,1.381-28.998-1.801-38.046-8.152c-1.2-1.137,0.604-2.276,0-4.756c-10.258-7.67-23.587-10.244-36.687-17.665
			c-5.385-3.05-14.751-12.949-17.665-0.679c-2.116,8.913,3.289,14.283,5.436,20.382c5.148,14.625,4.582,33.627,14.946,39.405
			c0,2.491,0,4.982,0,7.474c4.182,3.909,8.566,2.777,12.909,6.114c10.985,8.439,11.026,32.41,2.038,42.122
			c-18.455,2.057-22.975-20.936-32.611-33.29c-2.593-3.325-8.419-6.558-10.191-9.512c-1.78-2.968-1.507-10.178-2.718-15.626
			c-1.024-4.609-2.267-9.607-3.397-15.626c-3.186-16.966-11.669-37.475-12.908-52.313c-1.263-15.129,9.338-27.101,18.344-31.932
			c19.426-1.309,32.444,3.791,48.916,5.435c-2.479-5.855-10.648-8.564-16.305-14.267c-3.588-3.617-12.284-22.19-20.382-20.382
			c-5.966,1.333-3.362,13.948-6.115,19.703c-2.961,6.192-8.352,8.919-14.267,10.87c-7.273,7.032-12.379,14.989-12.909,27.176
			c-0.577,13.278,7.653,25.535,7.474,35.328C21.901,345.423,10.26,365.313,2.318,364c-4.718-0.78-6.447-13.258-6.114-21.061
			c0.43-10.082-0.149-23.137,2.038-31.932c0.971-3.904,4.372-7.106,5.435-10.87c1.851-6.551,0.927-13.103,3.397-19.023
			c0.976-2.339,3.153-3.78,4.077-6.115c1.389-3.512,1.518-8.158,2.717-12.229c1.084-3.68,3.53-7.32,4.076-10.191
			c0.469-2.464-0.382-5.146,0-8.153c0.488-3.842,3.766-8.159,5.436-12.908c2.785-7.926,2.965-15.438,6.114-19.702
			c7.101-9.615,24.191-11.645,35.329-5.436c5.321,2.967,10.585,9.243,16.985,13.588c10.416,7.073,22.708,11.704,33.969,17.665
			c8.008-0.918,9.618-9.271,15.626-13.588c10.334-7.425,26.796-10.197,28.535-26.496c18.33-14.861,36.165-35.564,45.519-63.184
			c2.255-6.658,6.386-16.353,3.397-21.061c-10.021-3.417-25.505,0.034-33.969-6.114c-17.08-4.502-27.776,11.13-42.123,2.717
			c0.695-9.269,15.064-4.864,17.664-12.229c-9.34-1.656-22.06,10.807-29.214,1.359c-2.673-18.525,9.693-22.012,12.229-35.328
			c30.49-0.31,43.728-17.871,65.222-27.176c-3.511-3.436-9.986-6.574-16.985-7.473c-6.795-0.874-15.906,4.427-18.343-2.039
			c5.148-3.231,13.22-3.538,20.382-4.756c-0.414-3.437-8.687,0.987-7.473-4.076c1.634-3.026,10.001-3.647,14.267-3.397
			C200.834,15.398,212.333,23.222,221.762,18.869z M256.411,31.777c1.096,0.896,5.986,1.467,6.114-0.68
			C260.506,31.125,257.095,29.076,256.411,31.777z M265.243,42.647c0.644-2.455-2.676-0.947-4.076-1.358
			C260.523,43.744,263.843,42.236,265.243,42.647z M215.647,48.083c1.95,1.61,4.722-0.309,5.436-2.038
			C219.583,44.885,215.552,45.544,215.647,48.083z M183.037,55.556c-6.726,4.37-16.109,6.084-21.741,11.55
			c11.049-0.275,16.896-5.75,25.138-8.832C186.307,56.363,185.252,55.379,183.037,55.556z M195.945,62.35
			c3.641,3.121,9.013,7.477,15.626,5.435C215.815,58.384,197.925,51.643,195.945,62.35z M260.487,75.258
			c6.4-1.752,12.234-4.071,16.306-8.152c-4.552-0.476-6.071,2.082-10.19,2.038c-1.29-2.004,0.201-4.207-0.68-5.435
			C262.599,63.25,258.234,70.081,260.487,75.258z M131.403,89.525c5.158-0.73,9.153-2.623,9.512-8.152
			C136.547,74.627,128.683,83.301,131.403,89.525z M147.029,82.052c0.893,0.872,2.504,0.872,3.396,0c0-0.679,0-1.359,0-2.038
			c-0.918-0.213-1.298-0.967-2.717-0.679C147.86,80.619,146.943,80.833,147.029,82.052z M200.021,99.717
			c9.226,1.7,15.117-7.006,14.267-10.871C209.99,92.927,203.861,95.177,200.021,99.717z M274.755,92.243
			c1.776,0.191,2.923-0.248,2.718-2.038C275.695,90.014,274.55,90.453,274.755,92.243z M224.479,102.434
			c4.85-0.371,12.392-4.49,8.153-9.512C229.413,95.591,225.421,97.488,224.479,102.434z M277.473,100.396
			c1.91-0.127,2.895-1.182,2.717-3.397C278.238,97.085,276.963,97.849,277.473,100.396z M225.838,111.946
			c7.72,1.763,15.374-2.24,16.985-8.832C237,103.366,231.254,109.072,225.838,111.946z M276.793,109.228
			c2.408-0.082,4.307-0.675,4.756-2.717C279.84,105.141,276.895,106.887,276.793,109.228z M279.51,114.663c-1.132,0-2.264,0-3.396,0
			C274.937,117.912,280.441,117.132,279.51,114.663z M275.435,126.892c2.033,2.597,6.418,0.342,5.435-4.076
			c-0.936,0.03-1.491-0.32-2.038-0.68C278.271,124.294,276.663,125.403,275.435,126.892z M275.435,137.083
			c2.166,1.502,6.4,0.375,5.435-3.397C277.533,133.295,275.862,134.567,275.435,137.083z M196.625,189.396
			c10.029-3.199,14.793-13.779,19.703-22.42c4.862-8.558,12.624-17.807,11.549-29.213
			C212.373,149.887,207.766,172.909,196.625,189.396z M274.755,146.595c2.133,1.637,5.669,0.137,5.435-2.718
			C277.118,143.523,275.294,144.417,274.755,146.595z M273.396,155.427c3.79,0.167,7.549,0.301,7.474-3.397
			C277.379,152.164,274.666,153.074,273.396,155.427z M274.075,165.618c3.186,0.015,6.698,0.357,6.794-2.718
			C279.276,160.458,273.515,161.829,274.075,165.618z M272.037,173.771c2.857,0.139,5.68,0.245,6.114-2.039
			C276.723,169.641,271.405,169.933,272.037,173.771z M268.641,184.641c2.975,1.948,6.6-0.395,6.794-3.397
			C271.606,180.813,269.336,181.939,268.641,184.641z M266.603,193.473c-0.557,2.462,5.128,1.642,4.755,0
			C270.451,192.503,267.508,192.503,266.603,193.473z M265.243,202.305c-0.029,0.936,0.32,1.492,0.68,2.038
			c2.134,0.322,2.775-0.847,3.396-2.038C268.451,201.375,266.111,201.375,265.243,202.305z M265.923,211.816
			c-0.905,0-1.813,0-2.718,0C262.127,214.975,266.716,214.175,265.923,211.816z M41.723,218.61c2.778,1.558,7.779,0.307,8.153-2.718
			C48.563,213.963,41.011,214.357,41.723,218.61z M189.831,216.572c-9.772-0.959-24.384,2.796-27.855,8.153
			c10.661-1.091,28.755-4.107,40.084,0.68C201.736,219.762,195.19,217.098,189.831,216.572z M259.809,219.29
			c-0.697,2.283,2.112,1.058,3.396,1.359C262.971,218.25,261.422,218.892,259.809,219.29z M32.891,234.236
			c-4.415,4.417-6.49,11.174-6.115,20.382C31.502,251.369,35.892,240.698,32.891,234.236z M76.372,253.938
			c-1.578-3.188-5.587-7.533-8.832-6.794C69.784,250.11,72.465,252.637,76.372,253.938z M221.762,254.618
			c-0.067-3.104,0.55-6.892-1.359-8.153C209.179,245.096,213.186,260.396,221.762,254.618z M98.113,284.511
			c11.887-3.077,14.104-19.39,15.626-30.573C104.493,260.092,105.744,276.743,98.113,284.511z M253.014,304.214
			c6.649,13.304,20.788,28.077,30.573,31.931c-8.433-12.015-19.983-23.515-26.496-38.046c-2.934-6.544-1.632-16.932-8.832-19.703
			C244.868,286.281,249.253,296.687,253.014,304.214z M29.494,292.664c0.729-1.39,4.571-5.875,1.359-6.794
			C30.985,288.3,27.054,290.179,29.494,292.664z M72.976,311.687c5.739,2.866,8.963,8.248,16.984,8.832
			C89.75,315.644,75.794,311.69,72.976,311.687z M39.685,355.168c-0.485-10.612-3.76-18.433-6.115-27.176
			C31.472,338.827,34.578,349.375,39.685,355.168z M454.794,342.939c0.884,16.401,3.224,30.988-1.359,43.481
			c-4.544,12.389-16.492,20.59-19.022,33.29c23.941-7.977,34.532-51.83,20.382-78.809
			C455.062,342.069,453.785,342.643,454.794,342.939z M176.243,382.344c12.854,11.705,30.063,22.803,42.801,29.214
			c-18.984-14.985-34.575-33.364-52.313-49.596c-0.68,0-1.359,0-2.038,0C162.651,371.743,170.125,376.773,176.243,382.344z
			 M275.435,397.97c2.92-4.801,11.373-10.97,6.114-17.664C274.396,380.685,274.791,392.037,275.435,397.97z M71.616,417.672
			c1.184,0.051,2.113-0.151,2.718-0.68c0.318-2.129-1.708-1.915-2.718-2.717C70.343,415.568,71.542,415.982,71.616,417.672z
			 M373.267,460.474c2.508-3.365,3.135-11.955-0.68-14.267C363.173,446.408,371.924,456.744,373.267,460.474z M280.189,505.993
			c1.419-8.999,5.969-14.866,7.474-23.779C280.416,484.309,275.568,498.718,280.189,505.993z M296.495,558.985
			c-2.521-5.405,0.508-16.36-6.114-17.664C289.698,549.931,292.399,555.154,296.495,558.985z M323.671,597.031
			c2.252-0.238,2.947-2.034,4.076-3.396C324.976,593.354,323.461,594.33,323.671,597.031z M305.327,604.505
			c-7.995,9.908-20.983,18.404-25.817,29.214c10.919-8.104,20.938-17.107,27.855-29.214
			C306.687,604.505,306.007,604.505,305.327,604.505z M259.809,650.703c1.698,1.034,5.19-0.834,4.755-4.076
			C261.824,646.831,259.679,647.63,259.809,650.703z M238.747,684.673c4.783-0.097,7.728-5.237,6.793-8.832
			C240.797,676.173,237.741,680.73,238.747,684.673z"/>
	</g>
</g>
</svg>
