<?xml version="1.0" encoding="utf-8"?>
<!-- Generator: Adobe Illustrator 15.1.0, SVG Export Plug-In . SVG Version: 6.00 Build 0)  -->
<!DOCTYPE svg PUBLIC "-//W3C//DTD SVG 1.1//EN" "http://www.w3.org/Graphics/SVG/1.1/DTD/svg11.dtd">
<svg version="1.1" id="Layer_1" xmlns="http://www.w3.org/2000/svg" xmlns:xlink="http://www.w3.org/1999/xlink" x="0px" y="0px"
	 width="100px" height="100px" viewBox="0 0 100 100" enable-background="new 0 0 100 100" xml:space="preserve">
<g>
	<path fill-rule="evenodd" clip-rule="evenodd" fill="#8F8F8F" d="M47.483,2.283c0.451-0.223,1.315-0.033,1.926-0.096
		C48.958,2.41,48.094,2.22,47.483,2.283z"/>
	<path fill-rule="evenodd" clip-rule="evenodd" fill="#8F8F8F" d="M49.987,2.187c0.867,0.063,1.989-0.128,2.696,0.096
		C51.816,2.219,50.694,2.41,49.987,2.187z"/>
	<path fill-rule="evenodd" clip-rule="evenodd" fill="#8F8F8F" d="M53.069,2.283c0.324,0.061,0.895-0.124,1.059,0.096
		C53.804,2.318,53.233,2.503,53.069,2.283z"/>
	<path fill-rule="evenodd" clip-rule="evenodd" fill="#8F8F8F" d="M48.735,2.668c0.804-0.161,2.279-0.161,3.083,0
		C50.79,2.668,49.762,2.668,48.735,2.668z"/>
	<path fill-rule="evenodd" clip-rule="evenodd" fill="#707070" d="M47.579,2.764c0.134-0.22,0.67-0.036,0.963-0.096
		C48.409,2.888,47.872,2.704,47.579,2.764z"/>
	<path fill-rule="evenodd" clip-rule="evenodd" fill="#707070" d="M51.817,2.668c0.353,0,0.706,0,1.059,0c0,0.032,0,0.064,0,0.096
		C52.552,2.703,51.981,2.888,51.817,2.668z"/>
	<path fill-rule="evenodd" clip-rule="evenodd" fill="#AEAEAE" d="M50.469,50.337c-0.097,0-0.115-0.078-0.193-0.097
		c-0.453-14.712-0.143-30.269,0.096-44.779C50.417,20.407,50.271,35.543,50.469,50.337z M50.276,40.899
		c-0.063-2.505,0.127-5.777-0.096-7.801C50.243,35.604,50.052,38.875,50.276,40.899z"/>
	<path fill-rule="evenodd" clip-rule="evenodd" fill="#D4D4D4" d="M50.18,33.099c0.224,2.024,0.033,5.296,0.096,7.801
		C50.052,38.875,50.243,35.604,50.18,33.099z"/>
	<path fill-rule="evenodd" clip-rule="evenodd" fill="#707070" d="M97.945,47.736c0,0.097,0,0.193,0,0.289
		c0.061,0.356-0.125,0.959,0.096,1.156c-0.064,1.124,0.128,2.503-0.096,3.467c0-0.578,0-1.156,0-1.734
		c-0.648-0.443-1.818-0.365-2.601-0.674c-0.246,0.171,0.064,0.898-0.192,1.06c0-0.706,0-1.413,0-2.119
		c-0.061-0.324,0.124-0.895-0.097-1.06c0-0.161,0-0.321,0-0.481c0-0.289,0-0.578,0-0.867c1.037,0.055,1.951,0.231,2.792,0.481
		C97.9,47.395,97.736,47.753,97.945,47.736z"/>
	<path fill-rule="evenodd" clip-rule="evenodd" fill="#8F8F8F" d="M97.945,48.025c0.22,0.196,0.035,0.8,0.096,1.156
		C97.82,48.985,98.006,48.381,97.945,48.025z"/>
	<path fill-rule="evenodd" clip-rule="evenodd" fill="#AEAEAE" d="M0.2,49.374c0.06-0.292-0.124-0.83,0.096-0.963
		c0,0.321,0,0.642,0,0.963C0.264,49.374,0.231,49.374,0.2,49.374z"/>
	<path fill-rule="evenodd" clip-rule="evenodd" fill="#AEAEAE" d="M100.063,48.411c0.222,0.26,0.034,0.929,0.096,1.348
		C99.938,49.499,100.125,48.83,100.063,48.411z"/>
	<path fill-rule="evenodd" clip-rule="evenodd" fill="#464646" d="M49.409,59.004c-0.188-0.166-0.208-0.499-0.192-0.867
		c-0.129,0.063-0.18,0.206-0.193,0.386c-0.087-1.503-1.586-4.352-1.252-5.778c0.206-0.879,1.286-1.006,1.926-1.637
		c0.421,0.088,0.121,1.113,0.096,1.637C49.701,54.758,49.641,57.147,49.409,59.004z"/>
	<path fill-rule="evenodd" clip-rule="evenodd" fill="#AEAEAE" d="M0.2,51.589c0.22,0.165,0.035,0.735,0.096,1.06
		C0.075,52.483,0.26,51.913,0.2,51.589z"/>
	<path fill-rule="evenodd" clip-rule="evenodd" fill="#D4D4D4" d="M100.159,52.552c-0.061,0.293,0.124,0.829-0.096,0.963
		C100.123,53.223,99.939,52.686,100.159,52.552z"/>
	<path fill-rule="evenodd" clip-rule="evenodd" fill="#8F8F8F" d="M0.488,55.345c-0.039-1.083,0.281,0.271,0,0.481
		C0.488,55.666,0.488,55.505,0.488,55.345z"/>
	<path fill-rule="evenodd" clip-rule="evenodd" fill="#D4D4D4" d="M24.756,87.701c-0.275,0.849-0.176,2.07-0.385,2.985
		c-8.222-5.164-14.47-12.303-18.297-21.86c0.385-0.617,1.258-1.561,2.119-2.022c0.651,1.561,1.203,3.098,2.022,4.623
		c0.308,0.573,0.541,1.291,0.867,1.733c2.058,2.796,4.063,5.778,6.452,8.378C19.687,83.88,22.069,85.887,24.756,87.701z"/>
	<path fill-rule="evenodd" clip-rule="evenodd" fill="#8F8F8F" d="M47.579,95.405c0.321,0,0.642,0,0.963,0c0,0.032,0,0.064,0,0.097
		C48.25,95.441,47.713,95.625,47.579,95.405z"/>
	<path fill-rule="evenodd" clip-rule="evenodd" fill="#707070" d="M49.505,100.509c0-0.032,0-0.063,0-0.096c0.482,0,0.963,0,1.445,0
		c0,0.032,0,0.063,0,0.096C50.469,100.509,49.987,100.509,49.505,100.509z"/>
	<path fill-rule="evenodd" clip-rule="evenodd" fill="#D4D4D4" d="M13.393,16.631c1.061-1.09,2.056-2.246,3.274-3.178
		c-0.12,0.202-0.28,0.362-0.481,0.481c-0.361,0.281-0.683,0.602-0.963,0.963C14.556,15.419,14.06,16.11,13.393,16.631z"/>
	<path fill-rule="evenodd" clip-rule="evenodd" fill="#D4D4D4" d="M13.585,84.523c0.794,0.875,1.629,1.71,2.503,2.504
		c0.266,0.184,0.49,0.408,0.674,0.674c-1.363-1.14-2.615-2.392-3.755-3.755C13.241,84.098,13.434,84.29,13.585,84.523z"/>
	<path fill-rule="evenodd" clip-rule="evenodd" fill="#D4D4D4" d="M84.174,87.221c0.313-0.394,0.666-0.747,1.06-1.06
		C84.921,86.555,84.567,86.907,84.174,87.221z"/>
	<path fill-rule="evenodd" clip-rule="evenodd" fill="#D4D4D4" d="M85.812,85.486c0.394-0.313,0.746-0.666,1.06-1.059
		c0.031,0,0.063,0,0.096,0c-0.345,0.425-0.73,0.811-1.155,1.155C85.812,85.551,85.812,85.519,85.812,85.486z"/>
	<path fill-rule="evenodd" clip-rule="evenodd" fill="#AEAEAE" d="M86.871,84.428c0.293-0.315,0.484-0.735,0.865-0.964
		c-0.248,0.329-0.521,0.635-0.77,0.964C86.934,84.428,86.902,84.428,86.871,84.428z"/>
	<path fill-rule="evenodd" clip-rule="evenodd" fill="#D4D4D4" d="M94.574,27.609c0.305,0.241,0.434,0.659,0.578,1.06
		C94.894,28.382,94.779,27.951,94.574,27.609z"/>
	<path fill-rule="evenodd" clip-rule="evenodd" fill="#D4D4D4" d="M85.618,15.284c0.458,0.377,0.876,0.794,1.253,1.251
		C86.413,16.158,85.996,15.741,85.618,15.284z"/>
	<path fill-rule="evenodd" clip-rule="evenodd" fill="#D4D4D4" d="M84.174,13.839c0.458,0.377,0.875,0.794,1.252,1.252
		C84.969,14.714,84.551,14.296,84.174,13.839z"/>
	<path fill-rule="evenodd" clip-rule="evenodd" fill="#8F8F8F" d="M76.758,8.253c2.749,1.585,5.084,3.584,7.416,5.585
		c0.377,0.458,0.795,0.875,1.252,1.252c0.086,0.043,0.173,0.084,0.192,0.193c0.378,0.458,0.795,0.874,1.253,1.251
		c2.941,3.317,5.612,6.906,7.703,11.074c0.205,0.341,0.319,0.773,0.578,1.06c0.649,1.566,1.431,3,1.926,4.719
		c-0.166-0.74-0.936-0.919-1.829-0.674c0.816,2.521,1.688,4.989,2.214,7.801c-0.402-0.753-0.31-2.001-0.962-2.504
		c0.593,3.13,1.302,6.145,1.444,9.726c-0.209,0.017-0.045-0.341-0.098-0.481c-0.841-0.25-1.755-0.427-2.792-0.481
		c0,0.289,0,0.578,0,0.867c-0.393-4.615-1.32-8.695-2.6-12.423c0.181,0.108,0.204,0.373,0.385,0.481
		c0.919-0.076,1.608-0.382,2.601-0.385c-2.925-9.467-8.354-16.429-15.12-22.053c-0.032,0-0.063,0-0.096,0
		c-0.542-0.613-1.26-1.051-1.927-1.541c-1.869-1.18-3.669-2.429-5.681-3.467c-0.494-0.437-1.176-0.687-1.83-0.963
		c-4.14-1.863-8.621-3.384-13.868-4.141c0.042-0.215,0.476-0.039,0.675-0.096c-0.819-0.529-2.298-0.398-3.37-0.674
		c9.449,0.791,16.583,3.896,22.822,7.897c0.19-0.452,0.499-0.786,0.578-1.348C77.453,8.671,76.902,8.712,76.758,8.253z"/>
	<path fill-rule="evenodd" clip-rule="evenodd" fill="#707070" d="M31.497,4.305c4.702-2.007,9.989-3.429,16.468-3.66
		c1.477,0,2.953,0,4.43,0c0.193,0,0.386,0,0.578,0c0.165,0.22,0.735,0.035,1.06,0.096c9.391,0.689,16.46,3.699,22.726,7.512
		c0.145,0.459,0.695,0.418,0.867,0.674c-0.079,0.563-0.388,0.896-0.578,1.348c-6.239-4-13.373-7.106-22.822-7.897
		c-0.032,0-0.064,0-0.097,0c-0.164-0.22-0.734-0.035-1.059-0.096c-0.129,0-0.257,0-0.386,0c-0.707-0.224-1.829-0.033-2.696-0.096
		c-0.193,0-0.385,0-0.578,0c-0.611,0.063-1.475-0.127-1.926,0.096c-5.62,0.19-10.151,1.47-14.445,2.985
		c0.22-0.261,0.718-0.244,0.963-0.481c-0.093-0.42-0.333-0.693-0.481-1.059C32.718,3.792,32.185,4.126,31.497,4.305z"/>
	<path fill-rule="evenodd" clip-rule="evenodd" fill="#8F8F8F" d="M24.756,9.409c-0.926,0.743-2.036,1.303-2.889,2.118
		c0.618,0.146,0.96-0.669,1.637-0.771c-0.375,0.331-0.753,0.659-1.252,0.867c-2.296,1.491-4.39,3.7-6.356,5.2
		c-0.077-0.456,0.423-0.699,0.674-0.962C18.86,13.45,21.965,11.079,24.756,9.409z"/>
	<path fill-rule="evenodd" clip-rule="evenodd" fill="#707070" d="M80.321,13.261c6.767,5.625,12.195,12.586,15.12,22.053
		c-0.992,0.003-1.682,0.309-2.601,0.385c-0.181-0.108-0.204-0.374-0.385-0.481c-1.035-2.593-2.154-5.101-3.468-7.416
		c0.53,0.593,0.787,1.46,1.349,2.022c0.879-0.18,1.674-0.445,2.601-0.578C89.898,22.751,85.445,17.671,80.321,13.261z"/>
	<path fill-rule="evenodd" clip-rule="evenodd" fill="#707070" d="M78.299,11.72c0.667,0.489,1.385,0.927,1.927,1.541
		C79.597,12.734,78.871,12.304,78.299,11.72z"/>
	<path fill-rule="evenodd" clip-rule="evenodd" fill="#707070" d="M70.788,7.29c0.654,0.276,1.336,0.527,1.83,0.963
		C72.02,7.921,71.333,7.676,70.788,7.29z"/>
	<path fill-rule="evenodd" clip-rule="evenodd" fill="#AEAEAE" d="M81.381,18.172c0.426,0.345,0.811,0.73,1.156,1.156
		C82.111,18.983,81.726,18.598,81.381,18.172z"/>
	<path fill-rule="evenodd" clip-rule="evenodd" fill="#707070" d="M49.313,5.557c0.409,0.023,0.519-0.252,0.963-0.192
		c-0.699-0.021-0.325,1.616-0.289,2.408c0.176,3.88-0.134,9.561,0,13.482c-0.399-1.444,0.307-3.292-0.385-4.333
		c-0.44-0.663-1.186-0.496-2.023-0.867c-0.721,1.301-0.707,3.337-1.251,4.815c0.913-5.155,2.02-10.114,2.985-15.216
		C49.313,5.621,49.313,5.589,49.313,5.557z"/>
	<path fill-rule="evenodd" clip-rule="evenodd" fill="#707070" d="M22.252,11.624c-1.559,1.298-3.224,2.49-4.623,3.949
		c0.621,0.631,1.357,1.146,2.022,1.733c0.604-0.296,0.938-0.86,1.541-1.156c-0.735,0.741-1.577,1.376-2.311,2.119
		c-0.393,0.313-0.747,0.666-1.059,1.06c-0.473,0.394-0.926,0.808-1.252,1.348c-1.761,2.09-3.466,4.238-4.912,6.645
		c0.105-0.473,0.409-0.747,0.578-1.155c-0.637-0.487-1.633-0.615-2.407-0.963c-0.714,0.151-0.759,1.271-1.445,1.156
		c-1.66,2.995-3.4,6.422-4.237,9.919c0.394-0.136,0.522-0.817,0.674-1.252c0.469-1.346,1.079-3.055,1.83-4.237
		c0.98,0.079,1.715,0.403,2.6,0.578c0.513-0.29,0.499-1.107,0.963-1.445c-0.669,1.385-1.309,2.799-1.926,4.237
		c-0.164-0.036-0.182,0.075-0.193,0.192c-0.838-0.189-1.725-0.33-2.6-0.481c-0.566,0.814-0.842,1.918-1.155,2.986
		c-0.777,2.336-1.361,4.867-1.637,7.704c-0.272,1.141-0.252,2.573-0.385,3.852c0.828,0.015,1.917-0.516,2.793-0.77
		c0.221,0.26,0.034,0.928,0.096,1.348c0.064,1.22-0.128,2.696,0.096,3.756c0.047,1.237,0.231,2.337,0.289,3.563
		c0,0.354,0,0.706,0,1.06c-0.812,0.407-1.615,0.825-2.503,1.156c-0.329-1.572-0.667-3.504-0.771-5.489
		c-0.077-1.468,0.288-3.207-0.289-4.43c-0.188,0.389-0.13,1.026-0.289,1.445c-0.569,0.04-0.875,0.345-1.444,0.385
		c0-0.353,0-0.707,0-1.06c0-0.321,0-0.642,0-0.963c-0.011-1.006,0.012-1.978,0.192-2.792c0.046,0.698-0.077,1.375,0,1.83
		c0.504-0.042,0.845-0.247,1.349-0.289c0.431-3.486,1.033-6.799,1.83-9.919c-0.135-0.378-0.913-0.114-1.348-0.193
		c-0.251,0.198-0.288,0.612-0.385,0.963c-0.032,0-0.064,0-0.096,0c0.321-1.444,0.705-2.826,1.252-4.045
		c0.181-0.108,0.205-0.373,0.385-0.481c0.523-0.073,0.746,0.153,1.252,0.096c1.012-2.005,1.83-4.205,2.889-6.163
		c-0.383-0.163-0.781-0.311-1.252-0.385c0.005-0.393,0.161-0.508,0.289-0.962c0.676-1.411,1.549-2.625,2.408-3.853
		c-0.036,0.446-0.417,0.546-0.481,0.963c0.243,0.335,0.822,0.333,1.155,0.578c1.995-2.339,3.69-4.977,5.874-7.126
		c-0.36-0.25-0.714-0.504-1.155-0.674c-0.915,0.53-1.44,1.449-2.215,2.119c0.236-0.631,0.924-0.809,1.156-1.445
		c0.667-0.521,1.163-1.212,1.83-1.733c0.361-0.281,0.682-0.602,0.963-0.963c0.201-0.12,0.362-0.28,0.481-0.481
		c3.281-2.819,6.775-5.423,10.882-7.416c-0.632,0.459-1.37,0.813-2.022,1.252c0.093,0.448,0.82,0.685,0.578,1.156
		c1.484-0.762,2.913-1.581,4.526-2.215c-1.986,1.032-4.056,1.979-5.875,3.178c-2.792,1.67-5.896,4.041-8.186,6.452
		c-0.251,0.264-0.751,0.507-0.674,0.962C17.862,15.323,19.956,13.115,22.252,11.624z"/>
	<path fill-rule="evenodd" clip-rule="evenodd" fill="#464646" d="M33.038,5.268c-0.201,0.056-0.275,0.239-0.578,0.193
		c-0.376,0.138-0.797,0.229-1.059,0.481c-0.271,0.082-0.395,0.311-0.771,0.289c-1.613,0.634-3.042,1.453-4.526,2.215
		c0.242-0.471-0.485-0.708-0.578-1.156c0.652-0.439,1.39-0.793,2.022-1.252c0.303-0.114,0.51-0.325,0.867-0.385
		c0.375-0.106,0.697-0.266,0.963-0.481c0.183-0.041,0.242-0.208,0.481-0.192c0.435-0.176,0.917-0.303,1.252-0.578
		c0.086-0.075,0.218-0.104,0.385-0.096c0.688-0.179,1.221-0.513,2.022-0.578c0.148,0.366,0.388,0.639,0.481,1.059
		C33.756,5.023,33.258,5.006,33.038,5.268z"/>
	<path fill-rule="evenodd" clip-rule="evenodd" fill="#707070" d="M31.401,5.942c0.262-0.251,0.683-0.343,1.059-0.481
		C32.198,5.712,31.776,5.804,31.401,5.942z"/>
	<path fill-rule="evenodd" clip-rule="evenodd" fill="#707070" d="M28.416,5.653c0.182-0.299,0.59-0.373,0.963-0.481
		C29.112,5.387,28.791,5.546,28.416,5.653z"/>
	<path fill-rule="evenodd" clip-rule="evenodd" fill="#707070" d="M29.86,4.979c0.274-0.336,0.757-0.463,1.252-0.578
		C30.777,4.676,30.295,4.804,29.86,4.979z"/>
	<path fill-rule="evenodd" clip-rule="evenodd" fill="#8F8F8F" d="M49.987,21.254c-0.134-3.921,0.176-9.602,0-13.482
		c-0.036-0.792-0.411-2.428,0.289-2.408c0.153,0.008,0.368-0.046,0.385,0.097c-0.096,0-0.192,0-0.289,0
		c-0.239,14.511-0.549,30.067-0.096,44.779c0.078,0.019,0.096,0.097,0.193,0.097c0.097,0.256,0.389,0.317,0.578,0.481
		c9.424,6.047,20.128,11.792,30.142,17.815c-2.445-1.369-5.854-3.38-7.126-3.948c-8.35-4.073-15.606-9.239-23.69-13.578
		c-0.225,2.305-0.25,5.043-0.385,7.607c-0.039,0.739-0.355,1.686,0.192,2.215c-0.225,0-0.449,0-0.674,0
		c0.443-0.529,0.346-1.608,0.385-2.504c0.039-0.884-0.044-1.87,0-2.793c0.087-1.832,0.005-3.721,0.481-5.104
		c-0.019-0.333-0.568-0.138-0.385-0.674c0-3.595,0-7.19,0-10.786C49.987,33.131,49.987,27.192,49.987,21.254z"/>
	<path fill-rule="evenodd" clip-rule="evenodd" fill="#AEAEAE" d="M50.758,5.557c0.064,0,0.128,0,0.192,0
		c-0.018,0.082,0.038,0.091,0.097,0.096c1.485,7.15,2.924,14.346,4.43,21.475c0.012,0.238-0.119,0.164-0.096,0
		C53.893,20.014,52.41,12.892,50.95,5.75C50.926,5.645,50.759,5.684,50.758,5.557z"/>
	<path fill-rule="evenodd" clip-rule="evenodd" fill="#D4D4D4" d="M50.372,5.461c0.097,0,0.193,0,0.289,0
		c0.082-0.018,0.091,0.037,0.097,0.096c0.001,0.127,0.168,0.088,0.192,0.193c1.46,7.143,2.942,14.264,4.431,21.378
		c-0.023,0.164,0.107,0.238,0.096,0c0.329,1.179,0.607,2.592,0.674,3.756c-0.025,0.531,0.217-0.338,0.192,0.192
		c0.37,2.298,1.093,4.636,1.252,6.837c-0.015,0.519,0.151-0.231,0.192,0.097c0.507,2.607,0.951,5.276,1.638,7.704
		c-0.078-0.019-0.097-0.097-0.193-0.096c4.066,3.77,8.579,7.813,12.905,11.556c0.612,0.53,1.239,1.263,1.829,1.637
		c0.054,0.034,0.456,0.243,0.193-0.096c0.17,0.087,0.298,0.215,0.385,0.385c-0.139,0.052-0.235-0.375-0.289-0.096
		c3.079,2.698,6.095,5.462,9.245,8.089c-0.148,0.237,0.667,1.428,0.963,1.83c0.659,0.896,1.73,1.816,2.793,2.504
		c0.71,0.459,1.646,0.721,2.021,1.444c-12.836-7.258-25.462-14.727-38.23-22.053c-0.189-0.164-0.481-0.225-0.578-0.481
		C50.271,35.543,50.417,20.407,50.372,5.461z"/>
	<path fill-rule="evenodd" clip-rule="evenodd" fill="#AEAEAE" d="M74.159,58.715c0.263,0.339-0.14,0.13-0.193,0.096
		c-0.59-0.374-1.217-1.106-1.829-1.637c-4.326-3.742-8.839-7.786-12.905-11.556c0.097,0,0.115,0.078,0.193,0.096
		C64.233,50.151,69.216,54.413,74.159,58.715z"/>
	<path fill-rule="evenodd" clip-rule="evenodd" fill="#AEAEAE" d="M51.047,50.818c12.769,7.326,25.395,14.795,38.23,22.053
		c-0.376-0.724-1.312-0.985-2.021-1.444c-1.063-0.688-2.134-1.608-2.793-2.504c-0.296-0.402-1.111-1.593-0.963-1.83
		c-3.15-2.627-6.166-5.391-9.245-8.089c0.054-0.279,0.15,0.147,0.289,0.096c4.47,3.863,9.394,8.356,14.155,12.423
		c0.394,0.337,0.517,0.8,0.964,0.481c-0.167,0.348-0.181,0.848-0.386,1.156c-2.857-1.347-5.378-3.032-8.089-4.526
		C71.175,62.61,60.471,56.865,51.047,50.818z"/>
	<path fill-rule="evenodd" clip-rule="evenodd" fill="#AEAEAE" d="M17.823,19.328c0.313-0.394,0.666-0.747,1.059-1.06
		C18.569,18.662,18.216,19.015,17.823,19.328z"/>
	<path fill-rule="evenodd" clip-rule="evenodd" fill="#8F8F8F" d="M16.571,20.676c0.326-0.541,0.779-0.954,1.252-1.348
		C17.395,19.767,17.049,20.288,16.571,20.676z"/>
	<path fill-rule="evenodd" clip-rule="evenodd" fill="#8F8F8F" d="M3.089,33.965c0.908-2.912,2.158-5.481,3.563-7.896
		c-0.128,0.454-0.284,0.569-0.289,0.962c0.471,0.075,0.869,0.223,1.252,0.385c-1.059,1.958-1.877,4.158-2.889,6.163
		c-0.506,0.057-0.729-0.169-1.252-0.096C3.293,33.592,3.27,33.857,3.089,33.965z"/>
	<path fill-rule="evenodd" clip-rule="evenodd" fill="#8F8F8F" d="M15.223,14.898c0.28-0.361,0.602-0.683,0.963-0.963
		C15.905,14.296,15.584,14.618,15.223,14.898z"/>
	<path fill-rule="evenodd" clip-rule="evenodd" fill="#464646" d="M9.06,22.217c0.936-1.503,1.983-2.896,3.178-4.141
		c0.774-0.67,1.3-1.589,2.215-2.119c0.441,0.17,0.795,0.425,1.155,0.674c-2.184,2.149-3.879,4.788-5.874,7.126
		C9.4,23.513,8.821,23.515,8.578,23.18C8.642,22.763,9.023,22.663,9.06,22.217z"/>
	<path fill-rule="evenodd" clip-rule="evenodd" fill="#707070" d="M44.209,31.462c-0.178,1.587-0.552,2.979-0.771,4.526
		c0.79,0.301,1.969,0.466,3.178,0.77c1.622,0.409,3.399,0.473,3.371,2.311c0,3.595,0,7.191,0,10.786
		c-0.184,0.537,0.366,0.341,0.385,0.674c-0.477,1.383-0.394,3.271-0.481,5.104c-0.044,0.923,0.039,1.909,0,2.793
		c-0.039,0.896,0.058,1.975-0.385,2.504c-7.935,2.658-15.766,5.42-23.786,7.993c-3.252,0.972-5.476,1.637-8.475,2.889
		c-1.732,0.676-3.579,1.236-5.393,1.83c-0.032,0-0.064,0-0.096,0c-0.197-0.028-0.189-0.261-0.385-0.289
		c4.731-2.964,9.759-5.303,14.445-8.281c4.667-2.968,9.529-5.593,14.156-8.572c-3.779,1.839-7.275,3.961-10.786,6.068
		c-4.34,2.304-8.436,4.853-12.712,7.222c2.154-1.409,4.486-2.641,6.741-3.947c-1.286,0.604-3.748,2.114-5.489,0.674
		c-2.396,1.616-4.259,3.766-6.549,5.488c4.61-4.186,9.314-8.276,13.964-12.423c1.156-0.861,2.11-1.892,3.178-2.6
		c1.725,0.234,3.404,2.242,5.2,2.311c1.211,0.047,3.122-1.255,4.333-1.926c3.949-2.185,8.39-4.768,11.941-6.837
		c-2.667-1.956-5.822-3.422-8.378-5.489C42.408,40.575,43.19,35.9,44.209,31.462z M42.091,45.521c2.616,1.493,5.217,3.514,7.8,4.719
		C47.279,48.743,44.613,46.788,42.091,45.521z M49.794,49.855c0.588-1.877-1.688-2.224-2.889-2.311
		c0.085,0.028,0.421,0.26,0.192,0.289c-0.123-0.02-0.472-0.28-0.481-0.097C47.724,48.395,48.527,49.357,49.794,49.855z
		 M49.794,52.744c0.024-0.523,0.325-1.549-0.096-1.637c-0.641,0.631-1.72,0.758-1.926,1.637c-0.334,1.427,1.165,4.275,1.252,5.778
		c0.013-0.18,0.063-0.322,0.193-0.386c-0.015,0.368,0.005,0.701,0.192,0.867C49.641,57.147,49.701,54.758,49.794,52.744z"/>
	<path fill-rule="evenodd" clip-rule="evenodd" fill="#8F8F8F" d="M8.289,34.158c-0.2,0.956-0.635,1.677-0.867,2.6
		c0.196-0.207-2.514-0.654-2.696-0.578c-0.322,0.135-0.158,0.52-0.385,0.674c0.313-1.067,0.589-2.172,1.155-2.986
		c0.875,0.152,1.762,0.292,2.6,0.481C8.107,34.233,8.125,34.123,8.289,34.158z"/>
	<path fill-rule="evenodd" clip-rule="evenodd" fill="#8F8F8F" d="M17.245,71.812c3-1.252,5.223-1.917,8.475-2.889
		C22.994,69.985,20.097,70.876,17.245,71.812z"/>
	<path fill-rule="evenodd" clip-rule="evenodd" fill="#8F8F8F" d="M11.756,73.642c-0.069,0.094-0.56-0.205-0.578-0.481
		c6.908-3.878,13.708-7.863,20.513-11.845c-0.749,0.118-1.683,0.885-2.504,1.252c3.51-2.107,7.007-4.229,10.786-6.068
		c-4.627,2.979-9.489,5.604-14.156,8.572c-4.687,2.979-9.714,5.317-14.445,8.281C11.567,73.381,11.559,73.613,11.756,73.642z"/>
	<path fill-rule="evenodd" clip-rule="evenodd" fill="#464646" d="M11.178,72.004c2.29-1.723,4.153-3.872,6.549-5.488
		c1.741,1.44,4.203-0.07,5.489-0.674c-2.255,1.307-4.587,2.538-6.741,3.947c-0.243,0.143-0.43,0.341-0.77,0.386
		c-1.608,0.831-3.038,1.841-4.719,2.601c-0.111-0.114-0.109-0.341-0.097-0.578C11.026,72.174,11.051,72.038,11.178,72.004z"/>
	<path fill-rule="evenodd" clip-rule="evenodd" fill="#464646" d="M49.891,50.24c-2.583-1.205-5.184-3.226-7.8-4.719
		C44.613,46.788,47.279,48.743,49.891,50.24z"/>
	<path fill-rule="evenodd" clip-rule="evenodd" fill="#8F8F8F" d="M41.417,45.04c2.556,2.067,5.711,3.534,8.378,5.489
		c-3.552,2.069-7.992,4.652-11.941,6.837c-1.211,0.671-3.122,1.973-4.333,1.926c-1.796-0.068-3.475-2.076-5.2-2.311
		c-1.067,0.708-2.021,1.738-3.178,2.6C30.514,54.682,36.049,49.945,41.417,45.04z M41.32,45.329
		c-0.823,0.879-2.178,1.738-2.697,2.601c0.087-0.17,0.215-0.299,0.385-0.385c0.809,0.711,1.883,1.535,3.082,2.503
		c0.944,0.763,2.146,2.274,3.274,2.407c1.544,0.184,2.934-1.392,4.237-2.022C46.818,48.755,44.117,46.995,41.32,45.329z"/>
	<path fill-rule="evenodd" clip-rule="evenodd" fill="#8F8F8F" d="M98.618,62.663c-0.188,1.128-0.522,2.109-0.866,3.082
		c0-0.192,0-0.385,0-0.578c-0.33-0.246-0.716-0.438-1.155-0.577c-0.326,0.411-0.335,1.142-0.674,1.541
		c0.124-0.68,0.373-1.232,0.578-1.83c0.308-0.592,0.435-1.363,0.674-2.022c0.511,0.099,0.858,0.36,1.348,0.481
		C98.495,62.588,98.613,62.562,98.618,62.663z"/>
	<path fill-rule="evenodd" clip-rule="evenodd" fill="#AEAEAE" d="M97.945,47.736c-0.143-3.582-0.852-6.596-1.444-9.726
		c0.652,0.503,0.56,1.751,0.962,2.504c0.457,2.079,0.833,4.238,0.963,6.645c0.016,1.204,0.128,2.311,0.192,3.466
		c0.408,0.199,1.104,0.416,1.541,0.289c0,0.546,0,1.091,0,1.637c-0.22,0.134-0.036,0.671-0.096,0.963
		c-0.236,3.295-0.657,6.405-1.445,9.148c-0.005-0.102-0.123-0.075-0.096,0.097c-0.489-0.121-0.837-0.383-1.348-0.481
		c-0.239,0.659-0.366,1.431-0.674,2.022c0.47-1.81,1.011-3.548,1.347-5.49c0.583,0.027,1.079,0.142,1.445,0.386
		c0.165-1.343,0.453-2.564,0.481-4.044c-0.405-0.205-0.849-0.372-1.349-0.481c-0.055-1.229,0.115-2.684-0.097-3.756
		c-0.38,0.873-0.111,2.392-0.384,3.371c0-0.225,0-0.449,0-0.674c0-0.321,0-0.643,0-0.963c0.224-0.964,0.031-2.343,0.096-3.467
		c-0.061-0.356,0.124-0.959-0.096-1.156C97.945,47.93,97.945,47.833,97.945,47.736z"/>
	<path fill-rule="evenodd" clip-rule="evenodd" fill="#AEAEAE" d="M49.602,50.433c-1.304,0.63-2.693,2.206-4.237,2.022
		c-1.127-0.133-2.33-1.645-3.274-2.407c-1.199-0.968-2.273-1.792-3.082-2.503c-0.17,0.086-0.298,0.215-0.385,0.385
		c0.519-0.862,1.874-1.722,2.697-2.601C44.117,46.995,46.818,48.755,49.602,50.433z"/>
	<path fill-rule="evenodd" clip-rule="evenodd" fill="#8F8F8F" d="M46.617,47.736c0.01-0.183,0.359,0.077,0.481,0.097
		c0.229-0.028-0.107-0.26-0.192-0.289c1.201,0.086,3.477,0.434,2.889,2.311C48.527,49.357,47.724,48.395,46.617,47.736z"/>
	<path fill-rule="evenodd" clip-rule="evenodd" fill="#AEAEAE" d="M0.97,59.004c-0.269-0.952-0.348-2.093-0.482-3.178
		c0.281-0.211-0.039-1.564,0-0.481c-0.208,0.017-0.043-0.342-0.096-0.481c0.58-0.223,0.859-0.746,1.445-0.963
		c0.245,1.424,0.378,2.959,0.578,4.429C1.916,58.537,1.016,58.343,0.97,59.004z"/>
	<path fill-rule="evenodd" clip-rule="evenodd" fill="#707070" d="M50.18,60.93c-0.547-0.529-0.231-1.476-0.192-2.215
		c0.134-2.564,0.16-5.303,0.385-7.607c8.084,4.339,15.341,9.505,23.69,13.578c1.271,0.568,4.681,2.579,7.126,3.948
		c2.711,1.494,5.231,3.18,8.089,4.526c0.205-0.309,0.219-0.809,0.386-1.156c0.392-0.635,0.638-1.416,1.059-2.022
		c0.892-0.361,1.549,0.962,2.505,1.156c-0.236,0.792-0.636,1.419-0.964,2.119c-0.579,1.058-1.095,2.179-1.829,3.081
		c0.327-0.538,0.623-1.109,0.963-1.637c-0.508-0.648-1.249-1.063-1.83-1.638c-0.5,0.271-0.819,0.723-1.156,1.156
		c0.042-0.184,0.208-0.242,0.193-0.481c-3.888-1.346-7.861-2.604-11.748-3.949c-3.463-1.288-7.026-2.476-10.689-3.563
		C60.769,64.529,55.496,62.707,50.18,60.93z"/>
	<path fill-rule="evenodd" clip-rule="evenodd" fill="#AEAEAE" d="M95.634,66.996c-0.058,0.393-0.186,0.714-0.385,0.963
		C95.289,67.55,95.417,67.229,95.634,66.996z"/>
	<path fill-rule="evenodd" clip-rule="evenodd" fill="#707070" d="M94.767,69.115c0,0.064,0,0.128,0,0.192
		c-0.074,0.247-0.096,0.546-0.288,0.674c0-0.063,0-0.128,0-0.192C94.69,69.68,94.485,69.154,94.767,69.115z"/>
	<path fill-rule="evenodd" clip-rule="evenodd" fill="#AEAEAE" d="M96.115,64.204c-0.721,2.648-1.86,4.88-2.696,7.415
		c0.432-0.147,0.688-1.301,1.06-1.83c0,0.064,0,0.129,0,0.192c-0.129,0.515-0.412,0.873-0.578,1.349
		c-0.763,1.324-1.399,2.774-2.215,4.045c-0.708,0.971-1.498,2.325-2.216,3.273c-0.206,0.273-0.516,0.808-0.771,0.675
		c-0.299,0.02,0.342-0.607,0.578-0.963c0.305-0.458,0.57-0.996,0.771-1.349c0.104-0.25,0.349-0.357,0.386-0.674
		c0.734-0.902,1.25-2.023,1.829-3.081C93.899,70.591,94.912,67.302,96.115,64.204z"/>
	<path fill-rule="evenodd" clip-rule="evenodd" fill="#8F8F8F" d="M93.515,62.567c0,0.16,0,0.32,0,0.481
		c0.695,0.493,1.617,0.759,2.312,1.252c0.424-0.508,0.422-1.44,0.771-2.022c-0.058,0.745-0.336,1.269-0.481,1.926
		c-1.203,3.098-2.216,6.387-3.853,9.053c0.328-0.7,0.728-1.327,0.964-2.119c-0.956-0.194-1.613-1.518-2.505-1.156
		C91.77,67.627,92.709,65.163,93.515,62.567z"/>
	<path fill-rule="evenodd" clip-rule="evenodd" fill="#8F8F8F" d="M66.166,66.227c3.663,1.087,7.227,2.274,10.689,3.563
		C73.231,68.662,69.668,67.474,66.166,66.227z"/>
	<path fill-rule="evenodd" clip-rule="evenodd" fill="#AEAEAE" d="M29.186,62.567c0.822-0.367,1.755-1.134,2.504-1.252
		c-6.804,3.981-13.605,7.967-20.513,11.845c0.019,0.276,0.509,0.575,0.578,0.481c0.032,0,0.064,0,0.096,0
		c0.409,1.208,1.185,2.268,1.926,3.274c3.673,4.987,8.526,9.56,14.156,12.711c2.294,1.285,4.876,2.328,7.416,3.371
		c-0.635,0.489-0.422,1.824-0.674,2.696c-1.063-0.156-1.923-0.517-2.793-0.866c-0.284,0.083,0.224,0.144,0.096,0.385
		c-0.579-0.224-1.058-0.546-1.733-0.674c-0.113-0.016-0.273,0.017-0.289-0.097c-0.62-0.504-2-1.081-2.985-1.541
		c-3.599-1.89-6.665-4.313-9.63-6.837c-0.859-0.938-1.757-1.838-2.696-2.696c-2.668-3.078-5.164-6.329-7.126-10.111
		c-0.32-0.549-0.614-1.633-0.963-1.83c-0.429-0.503-0.491-1.371-0.867-1.927c-0.521-1.404-1.168-2.684-1.541-4.236
		c-0.521-2.016-1.208-3.864-1.444-6.164c0.756,0.753,0.657,2.361,1.156,3.371c0.911-0.533,1.974-0.914,2.503-1.83
		c1.069,4.261,2.571,8.087,4.43,11.557c0.032,0,0.064,0,0.096,0c-0.013,0.237-0.014,0.464,0.097,0.578c0,0.031,0,0.063,0,0.096
		c1.664-0.808,3.231-1.713,4.719-2.696c0.34-0.045,0.527-0.243,0.77-0.386C20.75,67.42,24.846,64.871,29.186,62.567z M17.534,81.538
		c-2.389-2.6-4.395-5.582-6.452-8.378c-0.326-0.442-0.559-1.16-0.867-1.733c-0.819-1.525-1.371-3.063-2.022-4.623
		c-0.861,0.462-1.734,1.405-2.119,2.022c3.828,9.558,10.076,16.696,18.297,21.86c0.209-0.915,0.11-2.137,0.385-2.985
		C22.069,85.887,19.687,83.88,17.534,81.538z"/>
	<path fill-rule="evenodd" clip-rule="evenodd" fill="#8F8F8F" d="M30.246,94.539c0.675,0.128,1.154,0.45,1.733,0.674
		c0.127-0.241-0.38-0.302-0.096-0.385c0.87,0.35,1.729,0.71,2.793,0.866c0.252-0.872,0.04-2.207,0.674-2.696
		c3.3,1.033,6.802,1.865,10.689,2.312c-0.9-0.037-1.555-0.059-2.023-0.097c0.103,0.861,0.034,1.893,0.193,2.697
		c0.867,0.416,2.51,0.057,3.082,0.769c-0.792,0.054-1.307-0.17-2.119-0.096c-5.807-0.483-10.512-2.071-14.926-3.948
		C30.246,94.604,30.246,94.571,30.246,94.539z"/>
	<path fill-rule="evenodd" clip-rule="evenodd" fill="#8F8F8F" d="M26.971,92.901c0.985,0.46,2.365,1.037,2.985,1.541
		c-1.06-0.417-1.979-0.974-2.985-1.444C26.971,92.966,26.971,92.934,26.971,92.901z"/>
	<path fill-rule="evenodd" clip-rule="evenodd" fill="#707070" d="M14.645,83.368c0.939,0.858,1.837,1.758,2.696,2.696
		C16.402,85.206,15.503,84.307,14.645,83.368z"/>
	<path fill-rule="evenodd" clip-rule="evenodd" fill="#8F8F8F" d="M6.556,71.427c0.349,0.197,0.643,1.281,0.963,1.83
		C7.082,72.762,6.832,72.081,6.556,71.427z"/>
	<path fill-rule="evenodd" clip-rule="evenodd" fill="#8F8F8F" d="M6.363,60.641c-0.529,0.916-1.592,1.297-2.503,1.83
		c-0.499-1.01-0.4-2.618-1.156-3.371c0.236,2.3,0.924,4.148,1.444,6.164c-0.293-0.573-0.461-1.272-0.674-1.926
		C3,63.73,2.174,63.771,2.318,64.782c-0.595-1.781-1.079-3.673-1.348-5.778c0.046-0.661,0.946-0.467,1.444-0.675
		c-0.199-1.47-0.333-3.005-0.578-4.429c-0.586,0.217-0.865,0.74-1.445,0.963c-0.032-0.738-0.15-1.391-0.096-2.215
		c-0.061-0.324,0.124-0.895-0.096-1.06c0-0.738,0-1.477,0-2.215c0.032,0,0.064,0,0.096,0c0,0.353,0,0.707,0,1.06
		c0.57-0.041,0.875-0.345,1.444-0.385c0.159-0.419,0.101-1.056,0.289-1.445c0.577,1.223,0.212,2.962,0.289,4.43
		c0.104,1.985,0.441,3.917,0.771,5.489c0.889-0.331,1.691-0.749,2.503-1.156c0-0.354,0-0.706,0-1.06
		C5.862,57.739,6.098,59.204,6.363,60.641z"/>
	<path fill-rule="evenodd" clip-rule="evenodd" fill="#D4D4D4" d="M80.515,83.657c0.891-0.972,1.821-1.902,2.793-2.793
		c-0.166,0.315-0.509,0.455-0.675,0.771c-0.489,0.409-0.938,0.858-1.348,1.348C80.97,83.148,80.83,83.491,80.515,83.657z"/>
	<path fill-rule="evenodd" clip-rule="evenodd" fill="#707070" d="M2.318,64.782C2.174,63.771,3,63.73,3.474,63.338
		c0.213,0.653,0.38,1.353,0.674,1.926c0.373,1.553,1.019,2.832,1.541,4.236c-0.293-0.284-0.36-0.795-0.577-1.155
		c-0.334,0.372-0.702,0.711-0.963,1.155c0.168,0.764,0.546,1.316,0.77,2.022C3.813,69.516,2.984,67.229,2.318,64.782z"/>
	<path fill-rule="evenodd" clip-rule="evenodd" fill="#707070" d="M95.923,66.131c0.339-0.399,0.348-1.13,0.674-1.541
		c0.439,0.139,0.825,0.331,1.155,0.577c0,0.193,0,0.386,0,0.578c-0.435,1.555-0.982,2.997-1.637,4.333
		c0.101-0.573,0.383-0.966,0.481-1.541c-0.334-0.245-1.041-0.99-1.348-0.385c0-0.064,0-0.129,0-0.193
		c0.199-0.249,0.327-0.57,0.385-0.963C95.795,66.772,95.886,66.479,95.923,66.131z"/>
	<path fill-rule="evenodd" clip-rule="evenodd" fill="#707070" d="M10.985,72.775c1.681-0.76,3.111-1.77,4.719-2.601
		c-1.488,0.983-3.055,1.889-4.719,2.696C10.985,72.839,10.985,72.807,10.985,72.775z"/>
	<path fill-rule="evenodd" clip-rule="evenodd" fill="#707070" d="M95.826,70.752c-0.023,0.49-0.35,0.678-0.481,1.06
		c-0.007-0.488,0.341-0.622,0.386-1.06C95.763,70.752,95.794,70.752,95.826,70.752z"/>
	<path fill-rule="evenodd" clip-rule="evenodd" fill="#707070" d="M93.9,71.33c-0.191,0.611-0.525,1.08-0.771,1.638
		c0.106,0.472,0.601,0.555,0.866,0.866c0.449-0.032,0.417-0.547,0.675-0.771c0.032,0,0.064,0,0.096,0
		c-1.015,2.003-2.115,3.919-3.37,5.682c-0.458,0.319-0.564,0.443-0.867,0.963c-0.457-0.185-0.366-0.917-0.866-1.06
		c0.693-1.071,1.4-2.13,2.022-3.273C92.501,74.104,93.138,72.654,93.9,71.33z"/>
	<path fill-rule="evenodd" clip-rule="evenodd" fill="#464646" d="M5.688,69.5c0.376,0.556,0.438,1.424,0.867,1.927
		c0.276,0.654,0.526,1.335,0.963,1.83c1.963,3.782,4.458,7.033,7.126,10.111c0.858,0.938,1.757,1.838,2.696,2.696
		c2.965,2.523,6.031,4.947,9.63,6.837c0,0.032,0,0.064,0,0.097c1.006,0.471,1.926,1.027,2.985,1.444
		c0.016,0.113,0.176,0.081,0.289,0.097c0,0.032,0,0.064,0,0.096c4.415,1.877,9.12,3.465,14.926,3.948
		c4.382,0.673,9.571,0.167,13.578-0.577c1.854-0.345,3.75-0.497,4.72-1.444c2.175-0.618,4.155-1.43,6.066-2.312
		c-0.322-0.802-0.543-1.704-0.867-2.504c2.266-1.234,4.511-2.488,6.742-3.756c0.318,0.74,0.607,1.511,0.866,2.311
		c0.205,0.59-1.218,0.805-1.06,1.349c3.57-1.629,6.56-4.675,9.63-7.126c0.136,0.411,0.403,0.689,0.675,0.963
		c-0.419,1.058-1.495,1.458-2.119,2.311c-0.252,0.23-0.607,0.355-0.771,0.675c-2.46,2.162-5.15,4.095-8.186,5.682
		c-0.279,0.074-0.554,0.152-0.674,0.386c-0.201,0.184-0.46,0.311-0.771,0.385c-0.375,0.107-0.696,0.267-0.963,0.481
		c-5.093,2.548-10.882,4.398-18.008,4.911c-0.388,0.062-1.024-0.125-1.252,0.097c-0.097,0-0.192,0-0.289,0c-0.514,0-1.027,0-1.541,0
		c-0.481,0-0.963,0-1.445,0c-0.545,0-1.091,0-1.637,0c-0.096,0-0.192,0-0.289,0c-0.228-0.222-0.864-0.035-1.251-0.097
		c-13.013-1.047-21.971-6.148-29.564-12.615c-0.184-0.266-0.409-0.49-0.674-0.674c-0.794-0.874-1.628-1.709-2.503-2.504
		c-0.152-0.233-0.345-0.426-0.578-0.577c-2.739-3.2-5.284-6.595-7.223-10.594c-0.139-0.438-0.331-0.824-0.578-1.155
		c-0.156-0.165-0.291-0.351-0.289-0.675c-0.224-0.706-0.602-1.259-0.77-2.022c0.261-0.444,0.629-0.783,0.963-1.155
		C5.328,68.705,5.396,69.216,5.688,69.5z"/>
	<path fill-rule="evenodd" clip-rule="evenodd" fill="#707070" d="M52.588,95.405c12.111-0.792,20.507-5.302,27.444-11.267
		c0.441-0.362,0.926-0.681,1.253-1.156c0.489-0.409,0.938-0.858,1.348-1.348c0.166-0.315,0.509-0.455,0.675-0.771
		c0.643-0.577,1.129-1.312,1.733-1.927c-0.138,0.377-0.405,0.622-0.578,0.963c0.217,0.355,0.508,0.526,0.867,0.964
		c0.182,0.222,0.537,1.039,0.771,1.059c0.409,0.036,1.056-1.184,1.347-1.541c0.512-0.626,0.962-1.115,1.349-1.54
		c-1.31,2.093-3.449,3.867-4.622,5.778c1.602-1.16,3.195-3.16,4.622-4.815c0.405,0.141,0.592,0.5,1.06,0.577
		c-0.336,0.831-0.671,1.067-1.06,1.83c-0.302,0.469-0.67,0.872-1.06,1.252c-0.381,0.229-0.572,0.648-0.865,0.964
		c-0.394,0.313-0.747,0.666-1.06,1.059c0,0.032,0,0.064,0,0.097c-0.233,0.152-0.426,0.345-0.578,0.578
		c-0.394,0.313-0.747,0.666-1.06,1.06c-0.405,0.043-0.443,0.455-0.771,0.576c0.624-0.853,1.7-1.253,2.119-2.311
		c-0.271-0.273-0.539-0.552-0.675-0.963c-3.07,2.451-6.06,5.497-9.63,7.126c-0.158-0.544,1.265-0.759,1.06-1.349
		c-0.259-0.8-0.548-1.57-0.866-2.311c-2.231,1.268-4.477,2.521-6.742,3.756c0.324,0.8,0.545,1.702,0.867,2.504
		c-1.911,0.882-3.892,1.693-6.066,2.312c-0.97,0.947-2.865,1.1-4.72,1.444c-4.007,0.744-9.196,1.25-13.578,0.577
		c0.813-0.074,1.328,0.149,2.119,0.096c-0.572-0.712-2.215-0.353-3.082-0.769c-0.159-0.805-0.09-1.836-0.193-2.697
		c0.468,0.038,1.123,0.06,2.023,0.097c0.032,0,0.064,0,0.096,0c0.196,0.221,0.8,0.034,1.156,0.096c0.096,0,0.192,0,0.288,0
		c0.134,0.22,0.67,0.036,0.963,0.097C49.859,95.438,51.432,95.63,52.588,95.405z"/>
	<path fill-rule="evenodd" clip-rule="evenodd" fill="#8F8F8F" d="M82.633,88.472c0.163-0.319,0.519-0.444,0.771-0.675
		C83.206,88.081,82.976,88.332,82.633,88.472z"/>
	<path fill-rule="evenodd" clip-rule="evenodd" fill="#707070" d="M16.089,87.027c-0.874-0.794-1.709-1.629-2.503-2.504
		C14.46,85.318,15.295,86.153,16.089,87.027z"/>
	<path fill-rule="evenodd" clip-rule="evenodd" fill="#8F8F8F" d="M90.048,77.012c-0.2,0.353-0.466,0.891-0.771,1.349
		c-0.236,0.355-0.877,0.982-0.578,0.963c0.255,0.133,0.564-0.401,0.771-0.675c0.718-0.948,1.508-2.303,2.216-3.273
		c-0.622,1.144-1.329,2.202-2.022,3.273c0.5,0.143,0.409,0.875,0.866,1.06c0.303-0.52,0.409-0.644,0.867-0.963
		c-0.782,1.241-1.655,2.39-2.601,3.467c0.389-0.763,0.724-0.999,1.06-1.83c-0.468-0.077-0.654-0.437-1.06-0.577
		c-1.427,1.655-3.021,3.655-4.622,4.815c1.173-1.911,3.313-3.686,4.622-5.778C89.176,78.194,89.567,77.559,90.048,77.012z"/>
	<path fill-rule="evenodd" clip-rule="evenodd" fill="#464646" d="M90.434,76.338c-0.037,0.316-0.282,0.424-0.386,0.674
		c-0.48,0.547-0.872,1.183-1.252,1.83c-0.387,0.425-0.837,0.914-1.349,1.54c-0.291,0.357-0.938,1.577-1.347,1.541
		c-0.233-0.02-0.589-0.837-0.771-1.059c-0.359-0.438-0.65-0.608-0.867-0.964c0.173-0.341,0.44-0.586,0.578-0.963
		c1.143-1.554,2.313-3.079,3.369-4.718c0.337-0.434,0.656-0.886,1.156-1.156c0.581,0.575,1.322,0.989,1.83,1.638
		C91.057,75.229,90.761,75.8,90.434,76.338z"/>
	<path fill-rule="evenodd" clip-rule="evenodd" fill="#8F8F8F" d="M85.812,85.486c0.313-0.393,0.666-0.746,1.06-1.059
		C86.558,84.82,86.205,85.174,85.812,85.486z"/>
	<path fill-rule="evenodd" clip-rule="evenodd" fill="#8F8F8F" d="M80.515,83.657c0.315-0.166,0.455-0.509,0.771-0.675
		c-0.327,0.476-0.812,0.794-1.253,1.156C80.152,83.937,80.313,83.776,80.515,83.657z"/>
	<path fill-rule="evenodd" clip-rule="evenodd" fill="#AEAEAE" d="M81.285,82.982c0.409-0.489,0.858-0.938,1.348-1.348
		C82.224,82.124,81.774,82.573,81.285,82.982z"/>
	<path fill-rule="evenodd" clip-rule="evenodd" fill="#8F8F8F" d="M52.973,0.646c0.324,0.061,0.895-0.124,1.06,0.096
		C53.708,0.681,53.138,0.866,52.973,0.646z"/>
	<path fill-rule="evenodd" clip-rule="evenodd" fill="#8F8F8F" d="M52.876,2.668c0.556-0.009,1.105-0.014,1.445,0.192
		c-0.571,0.058-0.858-0.169-1.445-0.096C52.876,2.732,52.876,2.7,52.876,2.668z"/>
	<path fill-rule="evenodd" clip-rule="evenodd" fill="#464646" d="M54.321,2.86c0.993-0.031,1.76,0.166,2.599,0.289
		c5.247,0.757,9.729,2.277,13.868,4.141c0.545,0.386,1.231,0.631,1.83,0.963c2.012,1.038,3.812,2.287,5.681,3.467
		c0.572,0.584,1.298,1.014,1.927,1.541c0.032,0,0.063,0,0.096,0c5.124,4.411,9.577,9.491,12.616,15.986
		c-0.927,0.132-1.722,0.397-2.601,0.578c-0.562-0.563-0.818-1.429-1.349-2.022c-1.916-3.06-3.999-5.952-6.451-8.474
		c-0.346-0.426-0.73-0.811-1.156-1.156C74.547,11.749,66.039,7,54.032,5.75c-0.165-0.22-0.735-0.036-1.06-0.097
		c-0.097,0-0.192,0-0.289,0c-0.387-0.222-1.187-0.033-1.733-0.096c-0.064,0-0.128,0-0.192,0c-0.006-0.059-0.015-0.113-0.097-0.096
		c-0.018-0.143-0.232-0.089-0.385-0.097c-0.444-0.06-0.554,0.216-0.963,0.192c-0.483,0.063-1.218-0.126-1.541,0.096
		c-0.128,0-0.256,0-0.385,0c-0.324,0.061-0.894-0.124-1.059,0.097c-10.782,1.063-18.594,5.096-25.135,10.4
		c-0.603,0.295-0.937,0.86-1.541,1.156c-0.665-0.587-1.401-1.103-2.022-1.733c1.398-1.458,3.063-2.651,4.623-3.949
		c0.499-0.208,0.876-0.536,1.252-0.867c6.561-4.129,13.925-7.453,24.075-7.993c0.293-0.061,0.83,0.124,0.963-0.096
		c0.064,0,0.128,0,0.192,0c1.027,0,2.055,0,3.083,0c0.164,0.22,0.734,0.035,1.059,0.096C53.463,2.691,53.75,2.918,54.321,2.86z"/>
	<path fill-rule="evenodd" clip-rule="evenodd" fill="#AEAEAE" d="M56.92,3.149c-0.839-0.124-1.605-0.32-2.599-0.289
		c-0.34-0.206-0.89-0.202-1.445-0.192c-0.353,0-0.706,0-1.059,0c-0.804-0.161-2.279-0.161-3.083,0c-0.064,0-0.128,0-0.192,0
		c-0.293,0.061-0.83-0.124-0.963,0.096c-10.149,0.54-17.514,3.864-24.075,7.993c-0.677,0.101-1.019,0.917-1.637,0.771
		c0.854-0.815,1.963-1.375,2.889-2.118c1.818-1.199,3.889-2.146,5.875-3.178c0.375,0.022,0.5-0.207,0.771-0.289
		c0.375-0.138,0.796-0.23,1.059-0.481c0.303,0.046,0.376-0.138,0.578-0.193c4.294-1.515,8.826-2.794,14.445-2.985
		c0.611-0.063,1.475,0.127,1.926-0.096c0.193,0,0.385,0,0.578,0c0.707,0.224,1.829,0.033,2.696,0.096c0.129,0,0.257,0,0.386,0
		c0.164,0.22,0.734,0.035,1.059,0.096c0.032,0,0.064,0,0.097,0c1.072,0.276,2.551,0.146,3.37,0.674
		C57.396,3.11,56.962,2.934,56.92,3.149z"/>
	<path fill-rule="evenodd" clip-rule="evenodd" fill="#8F8F8F" d="M47.772,5.653c0.323-0.222,1.058-0.034,1.541-0.096
		c0,0.032,0,0.064,0,0.096C48.799,5.653,48.286,5.653,47.772,5.653z"/>
	<path fill-rule="evenodd" clip-rule="evenodd" fill="#8F8F8F" d="M50.95,5.557c0.547,0.063,1.347-0.126,1.733,0.096
		c-0.546,0-1.091,0-1.637,0C50.988,5.647,50.933,5.639,50.95,5.557z"/>
	<path fill-rule="evenodd" clip-rule="evenodd" fill="#8F8F8F" d="M46.328,5.75c0.165-0.22,0.735-0.036,1.059-0.097
		C47.222,5.874,46.652,5.688,46.328,5.75z"/>
	<path fill-rule="evenodd" clip-rule="evenodd" fill="#8F8F8F" d="M52.973,5.653c0.324,0.061,0.895-0.124,1.06,0.097
		C53.708,5.688,53.138,5.874,52.973,5.653z"/>
	<path fill-rule="evenodd" clip-rule="evenodd" fill="#464646" d="M11.659,27.321c-0.193,0.513-0.458,0.954-0.771,1.348
		c-0.233,0.12-0.312,0.395-0.385,0.674c-0.043,0.246-0.135,0.443-0.289,0.578c-0.464,0.338-0.45,1.155-0.963,1.445
		c-0.885-0.175-1.62-0.499-2.6-0.578c-0.75,1.182-1.36,2.891-1.83,4.237c-0.152,0.435-0.28,1.116-0.674,1.252
		c0.837-3.497,2.578-6.924,4.237-9.919c0.686,0.116,0.73-1.004,1.445-1.156c0.774,0.349,1.771,0.476,2.407,0.963
		C12.068,26.574,11.765,26.848,11.659,27.321z"/>
	<path fill-rule="evenodd" clip-rule="evenodd" fill="#707070" d="M10.889,28.669c-0.074,0.279-0.152,0.554-0.385,0.674
		C10.577,29.064,10.656,28.789,10.889,28.669z"/>
	<path fill-rule="evenodd" clip-rule="evenodd" fill="#464646" d="M44.209,31.462c0.639-3.598,1.346-7.129,2.119-10.593
		c0.544-1.479,0.531-3.515,1.251-4.815c0.837,0.371,1.583,0.204,2.023,0.867c0.692,1.042-0.014,2.889,0.385,4.333
		c0,5.938,0,11.877,0,17.815c0.028-1.838-1.749-1.902-3.371-2.311c-1.209-0.304-2.389-0.469-3.178-0.77
		C43.657,34.44,44.031,33.049,44.209,31.462z"/>
	<path fill-rule="evenodd" clip-rule="evenodd" fill="#707070" d="M97.078,33.388c1.478,3.947,2.566,8.284,2.889,13.386
		c0,0.513,0,1.027,0,1.54c-0.501-0.077-1.077-0.079-1.444-0.289c-0.06-0.262,0.122-0.764-0.097-0.866
		c-0.13-2.407-0.506-4.566-0.963-6.645c-0.526-2.812-1.397-5.279-2.214-7.801C96.143,32.469,96.912,32.648,97.078,33.388z"/>
	<path fill-rule="evenodd" clip-rule="evenodd" fill="#AEAEAE" d="M7.422,36.758c-0.821,2.421-1.345,5.14-1.83,7.896
		c-0.499,0.336-1.925,0.578-2.889,0.771c0-0.289,0-0.578,0-0.867c0.276-2.837,0.86-5.367,1.637-7.704
		c0.227-0.155,0.063-0.539,0.385-0.674C4.908,36.104,7.618,36.552,7.422,36.758z"/>
	<path fill-rule="evenodd" clip-rule="evenodd" fill="#464646" d="M0.488,45.618c0.179-2.807,0.704-5.267,1.349-7.608
		c0.032,0,0.064,0,0.096,0c0.098-0.352,0.134-0.765,0.385-0.963c0.435,0.079,1.213-0.185,1.348,0.193
		c-0.796,3.12-1.399,6.433-1.83,9.919c-0.504,0.042-0.845,0.247-1.349,0.289C0.412,46.993,0.534,46.316,0.488,45.618z"/>
	<path fill-rule="evenodd" clip-rule="evenodd" fill="#8F8F8F" d="M5.592,44.655c-0.053,1.488-0.333,2.749-0.289,4.333
		c-0.032,0-0.064,0-0.096,0c-0.062-0.419,0.125-1.088-0.096-1.348c-0.876,0.254-1.965,0.785-2.793,0.77
		c0.133-1.279,0.113-2.711,0.385-3.852c0,0.289,0,0.578,0,0.867C3.667,45.233,5.094,44.991,5.592,44.655z"/>
	<path fill-rule="evenodd" clip-rule="evenodd" fill="#8F8F8F" d="M95.056,49.181c0-0.354,0-0.707,0-1.06
		c0.221,0.165,0.036,0.735,0.097,1.06C95.12,49.181,95.088,49.181,95.056,49.181z"/>
	<path fill-rule="evenodd" clip-rule="evenodd" fill="#AEAEAE" d="M95.152,51.3c-0.062,0.356,0.125,0.959-0.097,1.155
		c0-1.091,0-2.183,0-3.274c0.032,0,0.064,0,0.097,0C95.152,49.887,95.152,50.594,95.152,51.3z"/>
	<path fill-rule="evenodd" clip-rule="evenodd" fill="#AEAEAE" d="M5.303,48.988c0,1.252,0,2.504,0,3.756
		c-0.224-1.06-0.032-2.536-0.096-3.756C5.239,48.988,5.271,48.988,5.303,48.988z"/>
	<path fill-rule="evenodd" clip-rule="evenodd" fill="#8F8F8F" d="M95.056,53.419c-0.061,0.324,0.124,0.895-0.096,1.059
		C95.021,54.153,94.836,53.583,95.056,53.419z"/>
	<path fill-rule="evenodd" clip-rule="evenodd" fill="#707070" d="M97.945,54.285c-0.068,0.383,0.167,1.067-0.193,1.156
		c0.135-0.54,0.004-1.345,0.193-1.83C97.945,53.836,97.945,54.061,97.945,54.285z"/>
	<path fill-rule="evenodd" clip-rule="evenodd" fill="#464646" d="M97.752,55.441c-0.084,1.648-0.374,3.091-0.674,4.525
		c-0.218,0.199-0.118,0.716-0.289,0.963c-0.925-0.23-1.639-0.672-2.504-0.963c-0.066-0.484,0.164-0.672,0.097-1.156
		c0.168-1.469,0.389-2.885,0.578-4.333c0.22-0.164,0.035-0.734,0.096-1.059c0-0.321,0-0.643,0-0.964
		c0.222-0.196,0.035-0.799,0.097-1.155c0.257-0.161-0.054-0.888,0.192-1.06c0.782,0.31,1.952,0.231,2.601,0.674
		c0,0.578,0,1.156,0,1.734c0,0.32,0,0.642,0,0.963C97.756,54.097,97.887,54.901,97.752,55.441z"/>
	<path fill-rule="evenodd" clip-rule="evenodd" fill="#707070" d="M94.382,58.811c0.067,0.484-0.163,0.672-0.097,1.156
		c0.865,0.291,1.579,0.732,2.504,0.963c0.171-0.247,0.071-0.764,0.289-0.963c0.091,1.021-0.477,1.385-0.481,2.312
		c-0.349,0.582-0.347,1.515-0.771,2.022c-0.694-0.493-1.616-0.759-2.312-1.252c0-0.161,0-0.321,0-0.481
		C93.761,61.272,94.08,60.051,94.382,58.811z"/>
	<path fill-rule="evenodd" clip-rule="evenodd" fill="#D4D4D4" d="M96.597,62.278c0.005-0.927,0.572-1.29,0.481-2.312
		c0.3-1.435,0.59-2.877,0.674-4.525c0.36-0.089,0.125-0.773,0.193-1.156c0.272-0.979,0.004-2.498,0.384-3.371
		c0.212,1.073,0.042,2.527,0.097,3.756c0.5,0.109,0.943,0.276,1.349,0.481c-0.028,1.479-0.316,2.701-0.481,4.044
		c-0.366-0.244-0.862-0.358-1.445-0.386c-0.336,1.942-0.877,3.681-1.347,5.49c-0.205,0.598-0.454,1.15-0.578,1.83
		c-0.037,0.348-0.128,0.642-0.289,0.865c-0.217,0.232-0.345,0.554-0.385,0.963c-0.284,0.263-0.296,0.796-0.482,1.156
		c-0.281,0.039-0.076,0.564-0.288,0.674c-0.371,0.529-0.628,1.683-1.06,1.83c0.836-2.535,1.976-4.767,2.696-7.415
		C96.261,63.547,96.539,63.023,96.597,62.278z"/>
	<path fill-rule="evenodd" clip-rule="evenodd" fill="#8F8F8F" d="M94.767,69.115c0.187-0.36,0.198-0.894,0.482-1.156
		c0,0.064,0,0.129,0,0.193c-0.084,0.462-0.238,0.854-0.482,1.155C94.767,69.243,94.767,69.18,94.767,69.115z"/>
	<path fill-rule="evenodd" clip-rule="evenodd" fill="#464646" d="M93.9,71.33c0.166-0.476,0.449-0.834,0.578-1.349
		c0.192-0.128,0.214-0.427,0.288-0.674c0.244-0.302,0.398-0.693,0.482-1.155c0.307-0.605,1.014,0.14,1.348,0.385
		c-0.099,0.575-0.381,0.968-0.481,1.541c0.003,0.324-0.133,0.51-0.289,0.674c-0.032,0-0.063,0-0.096,0
		c-0.045,0.438-0.393,0.571-0.386,1.06c-0.043,0.246-0.135,0.443-0.289,0.578c-0.197,0.155-0.242,0.464-0.385,0.674
		c-0.258,0.224-0.226,0.738-0.675,0.771c-0.266-0.312-0.76-0.395-0.866-0.866C93.375,72.41,93.709,71.941,93.9,71.33z"/>
	<path fill-rule="evenodd" clip-rule="evenodd" fill="#8F8F8F" d="M95.056,72.39c0.003,0.323-0.132,0.51-0.289,0.674
		c-0.031,0-0.063,0-0.096,0C94.813,72.854,94.858,72.545,95.056,72.39z"/>
	<path fill-rule="evenodd" clip-rule="evenodd" fill="#8F8F8F" d="M5.785,73.353c-0.299-0.278-0.491-0.664-0.578-1.155
		C5.454,72.528,5.646,72.914,5.785,73.353z"/>
	<path fill-rule="evenodd" clip-rule="evenodd" fill="#707070" d="M74.447,94.153c-0.12,0.233-0.395,0.312-0.674,0.386
		C73.894,94.306,74.168,94.228,74.447,94.153z"/>
	<path fill-rule="evenodd" clip-rule="evenodd" fill="#8F8F8F" d="M73.003,94.924c-0.215,0.267-0.537,0.427-0.963,0.481
		C72.307,95.19,72.628,95.031,73.003,94.924z"/>
	<path fill-rule="evenodd" clip-rule="evenodd" fill="#8F8F8F" d="M46.135,95.31c0.356,0.062,0.959-0.125,1.156,0.096
		C46.935,95.344,46.332,95.53,46.135,95.31z"/>
	<path fill-rule="evenodd" clip-rule="evenodd" fill="#AEAEAE" d="M48.542,95.405c1.348,0,2.697,0,4.045,0
		c-1.156,0.225-2.729,0.032-4.045,0.097C48.542,95.47,48.542,95.438,48.542,95.405z"/>
	<path fill-rule="evenodd" clip-rule="evenodd" fill="#8F8F8F" d="M46.328,100.316c0.388,0.062,1.024-0.125,1.251,0.097
		C47.192,100.351,46.556,100.538,46.328,100.316z"/>
	<path fill-rule="evenodd" clip-rule="evenodd" fill="#8F8F8F" d="M52.78,100.413c0.228-0.222,0.864-0.035,1.252-0.097
		C53.805,100.538,53.168,100.351,52.78,100.413z"/>
	<path fill-rule="evenodd" clip-rule="evenodd" fill="#8F8F8F" d="M50.95,100.413c0.514,0,1.027,0,1.541,0
		c-0.323,0.223-1.058,0.033-1.541,0.096C50.95,100.477,50.95,100.445,50.95,100.413z"/>
	<path fill-rule="evenodd" clip-rule="evenodd" fill="#8F8F8F" d="M47.965,0.646c1.252-0.161,3.178-0.161,4.43,0
		C50.918,0.646,49.441,0.646,47.965,0.646z"/>
	<path fill-rule="evenodd" clip-rule="evenodd" fill="#8F8F8F" d="M98.426,47.159c0.219,0.102,0.037,0.604,0.097,0.866
		c0.367,0.21,0.943,0.212,1.444,0.289c0-0.513,0-1.027,0-1.54c0.223,0.355,0.033,1.122,0.097,1.637
		c0.062,0.419-0.126,1.088,0.096,1.348c0,0.385,0,0.771,0,1.156c-0.437,0.126-1.133-0.09-1.541-0.289
		C98.554,49.47,98.441,48.363,98.426,47.159z"/>
	<path fill-rule="evenodd" clip-rule="evenodd" fill="#8F8F8F" d="M47.868,100.413c0.546,0,1.092,0,1.637,0c0,0.032,0,0.063,0,0.096
		C48.99,100.446,48.223,100.636,47.868,100.413z"/>
</g>
</svg>
