<?xml version="1.0" encoding="utf-8"?>
<!-- Generator: Adobe Illustrator 15.1.0, SVG Export Plug-In . SVG Version: 6.00 Build 0)  -->
<!DOCTYPE svg PUBLIC "-//W3C//DTD SVG 1.1//EN" "http://www.w3.org/Graphics/SVG/1.1/DTD/svg11.dtd">
<svg version="1.1" id="Layer_1" xmlns="http://www.w3.org/2000/svg" xmlns:xlink="http://www.w3.org/1999/xlink" x="0px" y="0px"
	 width="600px" height="600px" viewBox="0 0 600 600" enable-background="new 0 0 600 600" xml:space="preserve">
<g>
	<g>
		<path fill-rule="evenodd" clip-rule="evenodd" fill="#D29E30" d="M296.09,138.901c2.293,44.567,0.355,103.271,0.997,153.361
			c-14.264-2.603-9.709-20.868-8.963-32.863C290.502,221.117,294.356,176.731,296.09,138.901z"/>
		<path fill-rule="evenodd" clip-rule="evenodd" fill="#D29E30" d="M279.161-0.52c13.943,0,27.884,0,41.827,0
			c86.311,6.488,153.471,48.127,199.171,96.599c46.53,49.349,82.923,120.989,79.669,215.104
			c-3.136,90.675-42.604,154.14-91.619,203.154c-47.669,47.67-118.071,85.549-209.129,84.649
			c-92.634-0.915-159.255-38.495-209.131-85.646C41.391,467.438,4.206,397.576,0.32,309.194
			c-4.097-93.206,35.732-166.199,80.666-214.111C129.055,43.827,189.669,9.127,279.161-0.52z M61.068,431.683
			c-6.244-18.551-17.161-39.971-23.899-63.736c-6.368-22.453-10.009-46.449-10.955-74.687c0-1.992,0-3.983,0-5.975
			c-0.012-4.761-0.731-2.905-0.997-0.997c-6.048,43.69,3.422,87.959,15.935,121.496c12.932,34.662,33.89,62.971,54.771,84.646
			c47.866,49.691,108.74,82.704,192.202,87.636c87.283,5.162,154.86-30.241,203.154-73.692
			c59.4-53.44,110.417-153.176,84.649-268.88c-2.845-12.76-9.438-23.871-8.963-35.852c12.196,22.99,18.097,52.275,22.902,82.656
			c-1.487-95.197-35.606-153.913-86.639-202.16C453.099,34.747,377.583-1.64,284.141,2.469
			c-44.474,1.955-83.249,14.924-117.512,31.866c-64.727,32.008-115.389,87.36-142.407,156.35
			C10.135,226.656,0.65,270.956,4.304,318.153c5.835,75.362,35.284,139.037,80.666,173.282
			c-45.721-58.42-84.256-145.792-64.731-245.978C36.564,161.684,87.212,95.642,152.687,56.245
			c34.212-20.587,72.481-36.072,119.504-40.832c48.071-4.864,97.872,4.668,137.428,20.913
			c74.22,30.479,129.961,89.544,156.349,163.322c-16.358-24.473-29.966-57.003-50.79-73.694
			c26.318,36.504,49.902,88.993,55.77,148.384c6.362,64.409-14.811,114.931-32.862,156.348c-0.503,1.155-0.252,5.471-2.986,3.983
			c-0.397,4.381,5.364,2.602,5.973,5.977c-2.432-0.887-4.315-2.321-7.967-1.993c-47.188,71.225-118.46,132.452-233.031,132.452
			c-115.042,0-190.325-64.323-234.025-135.438c-4.014-1.293-7.681,2.853-8.963,0.997C60.868,435.272,66.804,431.711,61.068,431.683z
			 M534.102,431.683c21.432-39.849,37.179-89.572,34.853-142.407c-2.318-52.722-19.143-95.071-41.826-131.454
			C482.501,86.239,410.224,35.847,306.048,31.349c12.597,80.02,26.476,158.757,38.839,239.006
			c-13.023,7.225-28.009,17.797-40.83,21.908c0.758-88.061-1.248-173.356-0.994-260.914
			c-13.034,80.225-20.516,165.097-30.872,245.976c-5.499-3.132-11.479-5.782-15.935-9.958
			c15.55-77.729,29.283-157.276,43.818-236.018C191.699,34.57,120.159,84.122,75.009,153.839
			c-21.513,33.222-40.527,80.986-42.821,131.452c-2.573,56.673,11.929,101.34,31.868,142.409
			c64.966-48.561,124.466-102.592,189.213-151.37c5.59,3.371,11.64,6.285,16.93,9.958c-62.855,45.068-130.437,91.08-193.196,135.435
			c-3.468,2.451-9.98,4.368-9.96,9.96c76.101-41.741,154.267-86.732,230.044-125.479c0,15.272,0,30.541,0,45.81
			c-75.945,27.955-153.808,53.999-229.048,82.655c45.212,69.803,117.693,132.87,230.042,133.445
			c113.122,0.579,186.368-59.283,232.036-131.451c-75.188-28.718-152.385-55.418-226.062-85.646c0-15.269,0-30.537,0-45.807
			c76.209,42.298,153.212,89.112,229.048,128.466c-64.583-51.604-134.077-98.292-199.171-149.38
			c4.968-1.009,7.849-4.099,11.949-5.975C409.551,328.511,471.2,380.723,534.102,431.683z"/>
		<path fill-rule="evenodd" clip-rule="evenodd" fill="#D29E30" d="M283.144,293.259c3.6,1.378,5.58,4.378,9.96,4.978
			c-16.813,13.396-38.71,21.707-56.765,33.859C247.704,318.896,268.846,306.844,283.144,293.259z"/>
		<path fill-rule="evenodd" clip-rule="evenodd" fill="#D29E30" d="M308.04,299.234c2.685-2.628,7.204-3.42,9.96-5.975
			c40.389,25.701,87.944,57.716,124.482,82.654C396.961,351.062,353.137,324.516,308.04,299.234z"/>
	</g>
</g>
</svg>
